<svg xmlns="http://www.w3.org/2000/svg" viewBox="0 0 210.51 234.19"><defs><style>.cls-1{fill:#46bfea;}.cls-2{fill:#f9c999;}.cls-3{fill:#090706;}.cls-4{fill:#d6901b;}.cls-5{fill:#966718;}.cls-6{fill:#94bc1a;}.cls-7{fill:#e7651e;}.cls-8{fill:#e11b22;}.cls-9{fill:#fefefe;}.cls-10{fill:#f9c834;}.cls-11{fill:#368ec5;}</style></defs><g id="Layer_2" data-name="Layer 2"><g id="Layer_1-2" data-name="Layer 1"><path class="cls-1" d="M145.69,31.72a30.69,30.69,0,0,1,8.18-2.58c4.56-.6,7.57,1.84,7.63,6.47s0,9.43,0,14.15c0,5,2.82,7.78,7.82,7.8,5.31,0,10.63,0,15.95,0a37.09,37.09,0,0,1,12.88,2.33c9.71,3.7,14.17,12.2,11.66,22.26a26.53,26.53,0,0,1-4.06,8.88A119.12,119.12,0,0,0,198.21,104c-3.72,7-7.61,14-10.7,21.28-1.66,4-3.06,8-2.76,12.39a15.68,15.68,0,0,0,2.47,7.79,8.75,8.75,0,0,1,0,10.33c-2,3-4.25,5.8-6.36,8.71a79.63,79.63,0,0,0-4.92,7.52,9.26,9.26,0,0,0-1.29,4.65,30.68,30.68,0,0,1-6.62,19.1c-2,2.53-4,5-5.94,7.52-1.48,1.92-3.65,3.09-5.25,4.9s-3.4,3.91-5,5.92a25.52,25.52,0,0,1-11.86,8.4c-2.42.8-4.91.48-7.36.24a129.34,129.34,0,0,1-12.94-2.3c-5.88-1.2-11.31.37-16.48,3.11a41.37,41.37,0,0,0-5.44,3.7c-7.32,5.51-15.52,8-24.64,6.56-8.78-1.34-15.47-8.27-17.34-17.49-1.61-7.9-.41-15.49,2.49-22.87a69.63,69.63,0,0,1,10.47-18.07c4-5.05,6.65-10.73,6.45-17.37-.12-3.93-1.43-7.6-2.89-11.18q-2.49-6.1-5.18-12.12A13.42,13.42,0,0,1,67.3,123,64.31,64.31,0,0,1,74,111.7c0,.44.08.88.14,1.31a22.61,22.61,0,0,0,4.84,10.54c3.75,4.93,7.61,9.77,8.7,16.13a32.82,32.82,0,0,1-.06,7.28,24.78,24.78,0,0,1-3.23,7.79c-3.36,6.1-2.69,11.22,2,16.32a17.08,17.08,0,0,1,3.21,5A26.21,26.21,0,0,1,91.43,186c.06,4.84,2.37,8.65,5.94,11.68,2.65,2.25,3.57,4.83,2.61,8.18a3.7,3.7,0,0,0,2.73,4.93,10.84,10.84,0,0,0,7.28-.52,6.28,6.28,0,0,1,5.94.23,6.33,6.33,0,0,0,2.76.66,9.44,9.44,0,0,0,6.3-2.54c2.16-1.77,4-3.89,6.47-5.3a11.68,11.68,0,0,0,4.6-5.2,17,17,0,0,1,3.53-5.08,7.07,7.07,0,0,0,2.16-4.91c.12-2.16.3-2.43,2.46-3a13.39,13.39,0,0,0,3.36-1.22c2.77-1.5,4.19-4,3.83-6.72a15.28,15.28,0,0,0-1.32-3.44c-1.22-3.22-.64-4.56,2.37-6.21a58.06,58.06,0,0,0,11.24-7.68,13.54,13.54,0,0,0,4.66-12.63c-.67-5.2-2.66-10-4-15-.13-1.18-.29-2.37-.38-3.56a8.7,8.7,0,0,1,2-6.89c6-6.71,11.88-13.47,17.78-20.25,3.35-3.85,6.93-7.52,9.41-12.06,2.84-5.18,5-10.53,4.51-16.6,0-.51,0-1-.41-1.45a3.91,3.91,0,0,0-.49,0,98.14,98.14,0,0,0-15,4.47,5.86,5.86,0,0,1-2.06.57c-2.37.08-4-1.26-5.35-2.94-.84-1-1.53-2.15-2.39-3.14-1.78-2.07-3.68-4.19-6.39-4.86-3-.74-3.43-2.79-3.13-5.15.48-3.61-.79-5.67-4.22-6.62-2.26-.64-2.9-1.29-3-3.64a14,14,0,0,0-1.61-5.7A95.21,95.21,0,0,0,145.69,31.72Z"></path><path class="cls-2" d="M87.63,139.68c-1.09-6.36-4.95-11.2-8.7-16.13A22.61,22.61,0,0,1,74.09,113c-.06-.43-.09-.87-.14-1.31,0-2.17.72-4.23,1-6.35.54-3.53-1.25-5.8-4.69-5.8a9.43,9.43,0,0,1-7.66-3.24c-.57-.67-1.27-1.22-1.82-1.9-2.58-3.17-5.94-2.7-8.83-1.08-1.79,1-3.17,2.55-5,3.55-3,1.64-5.91,2.16-9.1.53-2.43-1.24-5-.69-7.46,0-4,1.23-7.84,1.14-11.47-1.18A20.53,20.53,0,0,1,13,89.76c-1.55-2.42-2.46-5.19-4.21-7.51S5,77.56,3,75.34c-3.38-3.77-3.93-8-1.65-12.27A20.11,20.11,0,0,0,3.43,53.4a37.48,37.48,0,0,1,.75-9.15,9.14,9.14,0,0,1,2.5-4.43,19.64,19.64,0,0,0,4.77-7.21c1.27-3.24,3.45-5.72,7.06-6.57a10.5,10.5,0,0,1,2.62-.12,5.13,5.13,0,0,0,5.35-5A13.35,13.35,0,0,1,28.55,14a6,6,0,0,1,3.2-2.58,10.29,10.29,0,0,0,5.92-4.77c1.33-2.1,2.83-1.9,4.64-1.25A25.4,25.4,0,0,0,45,6.49a10.47,10.47,0,0,0,6.63-1,37.72,37.72,0,0,1,17.25-3.1c.91.06,1.81.28,2.71.43.12.47-.16.85-.31,1.25q-3.47,9.61-7,19.2a4.83,4.83,0,0,0-.37,1.62c0,3.08,0,6.15,0,9.23a1.37,1.37,0,0,0,.69,1.22c-6.14,1.71-11.49,4.44-14.81,10.14a37.21,37.21,0,0,0-16.69-2.38,47.47,47.47,0,0,0-18.79,5.91c-.83.45-.81,1-.21,1.6.79.84,1.59,1.68,2.33,2.57s.61,1.54-.38,2.19a16.05,16.05,0,0,0-1.62,1.23c-1.08.93-1.06,1.2,0,2.12,7.22,6.29,14.5,12.52,21.41,19.16.52.5.91.61,1.53.16A39.23,39.23,0,0,1,62,70.62c2.8.1,4.48-.67,5.67-3a.28.28,0,0,1,.13-.12c2.21.5,3.94,1.41,3.58,4.1a1.59,1.59,0,0,0,.08.35,30.66,30.66,0,0,0,4,9.92,1.28,1.28,0,0,1,0,1.59,16.59,16.59,0,0,1-6.23,5.29c-.88.46-1,.94-.34,1.67a5.87,5.87,0,0,0,4.9,2.26c4.1-.06,6.26,1.3,7.32,4.47A20.31,20.31,0,0,0,84.92,104a4,4,0,0,1,1,2.23,10.92,10.92,0,0,0,3.11,6.7,48.15,48.15,0,0,1,6.48,8.84,3.87,3.87,0,0,0,2.41,1.81,16.41,16.41,0,0,0,6.4.07c.48-.06.92-.22,1.28.27a12,12,0,0,1,2.55,5.08c.22,1.4.41,3.13-.82,4a42.52,42.52,0,0,1-13.09,6.79c-1.88.54-3.82.88-5.69-.18A.79.79,0,0,0,87.63,139.68Zm-57-106.12a11.82,11.82,0,0,0,1.89,0c1.79-.31,3,.26,3.42,2.1.74,3.17,2.95,3.65,5.76,3.31,1.45-.17,1.74-.43,1.1-1.74Q37.59,26.56,32.34,15.9c-.21-.44-.4-.89-1-.84s-.7.53-.85,1L27,26.59q-1.87,5.73-3.74,11.46c-.41,1.27-.15,1.68,1.08,1.7s2.16,0,3.23,0a1.22,1.22,0,0,0,1.37-1C29.44,37,30,35.34,30.64,33.56Z"></path><path class="cls-3" d="M87.63,139.68a.79.79,0,0,1,.91-.07c1.87,1.06,3.81.72,5.69.18A42.52,42.52,0,0,0,107.32,133c1.23-.89,1-2.62.82-4a12,12,0,0,0-2.55-5.08c-.36-.49-.8-.33-1.28-.27a16.41,16.41,0,0,1-6.4-.07,3.87,3.87,0,0,1-2.41-1.81A48.15,48.15,0,0,0,89,112.91a10.92,10.92,0,0,1-3.11-6.7,4,4,0,0,0-1-2.23,20.31,20.31,0,0,1-3.84-6.83C80,94,77.86,92.62,73.76,92.68a5.87,5.87,0,0,1-4.9-2.26c-.61-.73-.54-1.21.34-1.67a16.59,16.59,0,0,0,6.23-5.29,1.28,1.28,0,0,0,0-1.59,30.66,30.66,0,0,1-4-9.92,1.59,1.59,0,0,1-.08-.35c.36-2.69-1.37-3.6-3.58-4.1a.28.28,0,0,0-.13.12c-1.19,2.33-2.87,3.1-5.67,3a39.23,39.23,0,0,0-24.61,7.46c-.62.45-1,.34-1.53-.16-6.91-6.64-14.19-12.87-21.41-19.16-1-.92-1.07-1.19,0-2.12a16.05,16.05,0,0,1,1.62-1.23c1-.65,1.14-1.28.38-2.19s-1.54-1.73-2.33-2.57c-.6-.64-.62-1.15.21-1.6a47.47,47.47,0,0,1,18.79-5.91,37.21,37.21,0,0,1,16.69,2.38c3.32-5.7,8.67-8.43,14.81-10.14a1.37,1.37,0,0,1-.69-1.22c0-3.08,0-6.15,0-9.23a4.83,4.83,0,0,1,.37-1.62q3.51-9.58,7-19.2c.15-.4.43-.78.31-1.25l1.1-.73c3.14-.71,6-.4,8.24,2.24A2.08,2.08,0,0,1,81,6.56c-.85,2.11-1.84,4.17-2.49,6.36-1.91,4.63-3.83,9.26-5.71,13.9A6.19,6.19,0,0,1,71.32,29c-2,2-3.9,4-6.06,6.15C66,35,66.39,35,66.8,34.94c1.37-.2,2.74-.45,4.11-.62,4.21-.53,8.45-.13,12.68-.38A83.18,83.18,0,0,0,94.29,33a47.56,47.56,0,0,0,17.84-7.21,9,9,0,0,1,9.51-.62,20,20,0,0,1,5.44,4.05c1.59,1.62,3.07,3.36,4.73,4.91a52.34,52.34,0,0,0,10.29,7.16,11.82,11.82,0,0,1,6.06,13.33,1.33,1.33,0,0,0,.43,1.47c3.81,3.47,7.6,7,11.59,10.22,2.94,2.39,6.18,4.4,8.93,7,2.1,2,3.93,4.22,4.24,7.28.21,2-.34,4-.61,6-.44,3.2-1.12,6.56,1.89,9.11a1.62,1.62,0,0,1-.13.33,4.69,4.69,0,0,1-.46.54,42.75,42.75,0,0,0-12.36,24.66c-.07.47,0,1-.58,1.22s-.74-.36-1-.68a124.42,124.42,0,0,0-10.77-10.4,49.93,49.93,0,0,0-7.38-5.38c-2.55,3.67-4,4.78-7.4,5.5a18.46,18.46,0,0,1-8.16-.41c-.82-.2-1.81-.56-2.45.23a22.76,22.76,0,0,1-3.84,3.76,1.2,1.2,0,0,0-.43,1.53,61.73,61.73,0,0,0,3.29,8.58c1.24,2.54,2.48,5.1,5.11,6.61a44,44,0,0,0,7.78,3.62c9.62,3.26,18.88,3.1,27.45-3.08a.93.93,0,0,1,1.1-.15c1.32,5,3.31,9.78,4,15a13.54,13.54,0,0,1-4.66,12.63,58.06,58.06,0,0,1-11.24,7.68c-3,1.65-3.59,3-2.37,6.21a15.28,15.28,0,0,1,1.32,3.44c.36,2.74-1.06,5.22-3.83,6.72a13.39,13.39,0,0,1-3.36,1.22c-2.16.52-2.34.79-2.46,3a7.07,7.07,0,0,1-2.16,4.91,17,17,0,0,0-3.53,5.08,11.68,11.68,0,0,1-4.6,5.2c-2.42,1.41-4.31,3.53-6.47,5.3a9.44,9.44,0,0,1-6.3,2.54,6.33,6.33,0,0,1-2.76-.66,6.28,6.28,0,0,0-5.94-.23,10.84,10.84,0,0,1-7.28.52,3.7,3.7,0,0,1-2.73-4.93c1-3.35,0-5.93-2.61-8.18-3.57-3-5.88-6.84-5.94-11.68a26.21,26.21,0,0,0-1.88-9.91,17.08,17.08,0,0,0-3.21-5c-4.69-5.1-5.36-10.22-2-16.32A24.78,24.78,0,0,0,87.57,147,32.82,32.82,0,0,0,87.63,139.68ZM26.28,60.15,26,60a57.74,57.74,0,0,0-8.09-6.79c.28.64-.16,1.5.67,1.91a42,42,0,0,1,6.89,4.72c.15.11.29.42.55.14,0,.09-.15.18,0,.28s.18-.08.26-.13l-.12.24.17.08C26.33,60.32,26.3,60.23,26.28,60.15ZM121.16,136c-.42.22-.86.4-1.26.66a47.07,47.07,0,0,0-10.77,9.93c-.82,1-1.13.94-1.61-.23a16.75,16.75,0,0,1-1.18-7.37c.08-1.33.28-2.66.42-4-1.81,1.86-1.54,10.2,1.37,14a.68.68,0,0,0,.21-.1c4.13-4.45,8.49-8.65,13-12.68.1-.11.42-.14.23-.35S121.27,135.79,121.16,136Zm-15.23,12.19c.67,1,1.33,2,2,3,.32-.23.56-.38.5-.66-1.44-.29-1.53-1.73-2.28-2.57A20.32,20.32,0,0,1,104.91,136a57.16,57.16,0,0,1-8.14,4.14,15.52,15.52,0,0,1,4.25,2.62A36.23,36.23,0,0,1,105.93,148.15ZM65.24,64s.05-.1.07-.1.15,0,.06-.1l-.13.2c.44-.5-.08-.81-.28-1.13A53.81,53.81,0,0,0,54,50.3c-1.74-1.5-3.33-3.22-5.57-4-7.87-2.89-15.77-2.68-23.7-.34a43.7,43.7,0,0,0-9.34,3.95,101,101,0,0,1,20.71,19c1-.67,1.84-1.32,2.75-1.89,6-3.74,12.37-6.23,19.64-5.3A15.3,15.3,0,0,1,65.24,64ZM166,72.27C164.7,71,163.13,70.1,161.75,69a1.79,1.79,0,0,0-1.94-.36,3.65,3.65,0,0,1-3.74-1,2.42,2.42,0,0,1-.49-3,.61.61,0,0,0-.15-.84c-.69-.58-1.36-1.19-2.09-1.83a3.77,3.77,0,0,1-4.11,1.59,1.83,1.83,0,0,1-1.69-2.07c0-1.4.93-2.19,2.07-2.89-5.26-4.93-10.44-9.77-17.57-11.88-.18,1.22.3,2.28,0,3.35s-.94,1.33-1.8,1a3.05,3.05,0,0,0-2.18-.21,1.4,1.4,0,0,1-1.63-.45,1.44,1.44,0,0,1,.11-1.69c.39-.63.86-1.21,1.38-1.92a16.72,16.72,0,0,0-12.37,8.52c.69.28,1.31.52,1.92.8a68.58,68.58,0,0,0,13.75,4.67,7.19,7.19,0,0,1,6,6.15,87.8,87.8,0,0,0,3.18,11.47c.13.4.21.77.81.84a4.34,4.34,0,0,1,3.72,4.49,2,2,0,0,1-.91,1.73c-.8.45-.8,1-.64,1.78a26.73,26.73,0,0,1,.34,9.27,13.13,13.13,0,0,1-3.66,7.32,52.08,52.08,0,0,1,9.26,6.15,11,11,0,0,1,1.58-3c.65-.73,1.46-1.11,2.32-.47a12.79,12.79,0,0,1,3,2.94c.89,1.27.57,2.29-.83,3a7.11,7.11,0,0,0-2,1c2.5,2.31,4.81,4.7,7.23,7.22.32-1.57.6-2.94.89-4.38-1.5,0-3,.33-3.61-1.45A3.71,3.71,0,0,1,159,111c1.09-.76,2.41-.59,4,.55l1.36-3.19c-2.72.85-5,0-5.74-2.08-.55-1.56.51-3.12,2.64-3.91a3.13,3.13,0,0,1,2.33,0c1.39.6,1.67,2,2.12,3.33l2.64-4.19c-1.94-2.08-2.24-3.57-1-5a2.14,2.14,0,0,1,1.41-.82c1.36-.21,2.29.66,3.23,1.4l1.11-1L171.75,94c-2.7.86-3.48.92-4.16.07a4.23,4.23,0,0,1-.48-4.21c.69-2,2.44-2,4.13-1.85.26-1.08.53-2,.73-3,.6-3,.53-5.89-1.47-8.44A17.19,17.19,0,0,0,167,73.12,2.5,2.5,0,0,0,166,72.27ZM86.57,100.45a8.63,8.63,0,0,1,.33,3.33,11.09,11.09,0,0,0,3,8.23A49,49,0,0,1,96.41,121a3.33,3.33,0,0,0,2.74,1.63,17.7,17.7,0,0,0,10-1.89,50.77,50.77,0,0,0,12.9-9,3.88,3.88,0,0,0,1.5-2.63,36.6,36.6,0,0,0-1.83-12.35c-1.55-4.82-4.32-9-6.93-13.34A24.75,24.75,0,0,0,104,73.75c-3-1.47-5.75-1.77-8.72,0-2.36,1.36-4.79,2.6-6.27,5A47.14,47.14,0,0,0,85,87a12.49,12.49,0,0,0-.73,4.07c3.14-1.49,7.85-.07,9,2.9-2.86-2.11-5.91-1.65-9-1.51a7.89,7.89,0,0,0,1.47,4.66c1.39-1.63,3-2.42,5-1.88A7.85,7.85,0,0,1,95.34,99c.42.65.07,1-.5,1.32A8.57,8.57,0,0,1,86.57,100.45Zm59,83.18,0-.26c-.14,0-.28-.08-.42-.1a33.58,33.58,0,0,0-19.61,2.7,47.07,47.07,0,0,0-14.76,10.25c-.7.72-1.24.83-2,.17s-1.9-1.46-2.8-2.25c-6.28-5.5-11-12-13.46-20.12a42.35,42.35,0,0,1-1.3-13.17,98.16,98.16,0,0,1,1.22-15c.26-1.51.64-3,1-4.57a14.54,14.54,0,0,1-4.52-.22c0,.67,0,1.26,0,1.85a21.33,21.33,0,0,1-.8,6.74c-.63,2.17-1.93,4-2.94,6-2.88,5.58-2.34,9.86,1.86,14.48a20.51,20.51,0,0,1,5.42,14.2,16.16,16.16,0,0,0,6.21,13,7.77,7.77,0,0,1,2.73,4.65,8.54,8.54,0,0,1-.25,3.89c-.54,2.17.23,3.57,2.31,3.92a9.62,9.62,0,0,0,6-.5,7.45,7.45,0,0,1,7.1.22,5.15,5.15,0,0,0,3.37.45,10.9,10.9,0,0,0,5.07-2.79,38.89,38.89,0,0,1,5.63-4.64,11.65,11.65,0,0,0,4.71-5.4,14.66,14.66,0,0,1,3.2-4.59,6.36,6.36,0,0,0,2.13-5,2.74,2.74,0,0,1,2.1-3.08C143.66,184.12,144.63,183.9,145.58,183.63ZM150,167.74c-.27-.23-.44-.39-.64-.53a27,27,0,0,0-16.07-5,9.53,9.53,0,0,1-6.17-2.16,42.79,42.79,0,0,1-5.68-5.66,13.87,13.87,0,0,0-6.4-4.24c-3.39-1.07-3.93-.92-6.17,1.83-.9,1.1-1.09,1.09-1.86-.14a32.6,32.6,0,0,0-7.38-8.74,8.28,8.28,0,0,0-3.32-1.78,1.67,1.67,0,0,0,0,.44,21.09,21.09,0,0,0,6.42,10.33c1.29,1.13,2.65,2.19,3.93,3.33a14.37,14.37,0,0,1,4.84,7.11,10.27,10.27,0,0,0,2,3.77,5.86,5.86,0,0,0,4.65,2.58c5.22,0,9.33,2.4,12.85,6a19.87,19.87,0,0,1,4.28,7.08,36.55,36.55,0,0,1,11.64.55,1.16,1.16,0,0,0,1-.17,5.72,5.72,0,0,0,2.28-3.13c.45-1.65-.33-3-.95-4.45C148.24,172.35,147.67,169.94,150,167.74Zm-7.14-29.34a33.07,33.07,0,0,0,0,14.28c1.52,6.19,5.33,10,11.74,11.06a3.29,3.29,0,0,0,2.44-.18,31.72,31.72,0,0,0,8.16-7,9.16,9.16,0,0,0,2.25-6c-.15-5.87-1.9-11.36-3.94-16.86C157.3,138,150.37,139.39,142.83,138.4Zm-47.46,5.26c-.08,1-.19,2-.23,3.06-.1,3,.19,5.86,2.55,8.16a8.34,8.34,0,0,1,2.22,5.17,47.75,47.75,0,0,1,0,6.1c0,5,2,8.52,6.73,10.31.45.17.87.4,1.33.55a15.28,15.28,0,0,1,8.69,6.72,11.18,11.18,0,0,0,2.81,3.09A1.18,1.18,0,0,0,121,187a40.21,40.21,0,0,1,13.18-4.85,16.93,16.93,0,0,0-2.65-5c-3.27-4.16-7.35-7-12.81-7.16a7.53,7.53,0,0,1-6.06-3,12.24,12.24,0,0,1-2.23-4.2,13,13,0,0,0-4.28-6.33c-1.57-1.36-3.18-2.67-4.72-4.07A26.22,26.22,0,0,1,95.37,143.66ZM50.82,46.21a79,79,0,0,1,9.39,8.53A43.45,43.45,0,0,1,67.46,65a16.39,16.39,0,0,1,7.37-6.69,39.69,39.69,0,0,1,10.71-3.56c2-.4,4-.75,5.52-2.46a1.6,1.6,0,0,0,.49-1.75c-1.61-5.32-5.23-9.1-9.32-12.59a10.11,10.11,0,0,0-7.79-2.73c-5.07.41-10,1.06-14.71,3.22A18.66,18.66,0,0,0,50.82,46.21Zm43.27,97.84L94,144c-.12.45-.25.89-.33,1.35a98.61,98.61,0,0,0-1.3,14.77,45.72,45.72,0,0,0,.46,10.13c2,10.46,7.92,18.39,16.12,24.84.63.5,1,.38,1.49-.13,1.09-1,2.25-2,3.4-3a62.64,62.64,0,0,1,5.36-3.92,22.64,22.64,0,0,1-4.48-5.09,12,12,0,0,0-5.51-4.26c-1.63-.63-3.24-1.34-4.81-2.12a9.33,9.33,0,0,1-5.25-7.27,36.94,36.94,0,0,1-.19-7.05,9.64,9.64,0,0,0-2.68-7.43,7.89,7.89,0,0,1-2.13-5.68C94.07,147.44,94.09,145.75,94.09,144.05Zm46.8,2.81c-1.17,0-2.2,0-3.23,0A18.72,18.72,0,0,1,129.1,145a12.25,12.25,0,0,0-4.82-1.21,13.85,13.85,0,0,0-11.71,4.61,15.29,15.29,0,0,1,10.23,5.8A35.33,35.33,0,0,0,126,157.6c2.12,2,4.3,3.49,7.53,3.49a27,27,0,0,1,16.84,5.5c.24.19.46.54.82.35a18.78,18.78,0,0,0,3.47-2c-7.26-1.14-11.34-5.38-13-12.15A44.9,44.9,0,0,1,140.89,146.86Zm-16-40.07a4,4,0,0,0,.62-1.69,63.06,63.06,0,0,0,1.12-16.67c-.21-4.56-2.57-8-6.48-10.28-1.47-.86-3-1.58-4.55-2.39-3.8-2-7-4.92-10.26-7.63s-6.46-2.64-9.65,0c-2.26,1.85-4.29,3.93-6.38,6A24.18,24.18,0,0,0,81.6,93.46a16.1,16.1,0,0,0,4,9.45,13.52,13.52,0,0,0-1.54-6.24,10.64,10.64,0,0,1-1-4.49c-.1-5.54,2.52-10.13,5.32-14.56,2.1-3.32,5.67-4.77,9.17-6.13a5.4,5.4,0,0,1,3.76,0c4.24,1.49,8.34,3.37,11.26,6.89a64.46,64.46,0,0,1,9.82,16.57C124,98.69,124.36,102.72,124.87,106.79Zm-6.5,9.76a57,57,0,0,1-11.92,6.64c2.34,3.09,3.81,6.23,2.29,10,3.44,2,14.06,1.23,17.22-1.23C121.93,127.59,120.3,122.06,118.37,116.55ZM90.63,45.45a10.34,10.34,0,0,1,6.94-5,20,20,0,0,1,4.86-.56,25.11,25.11,0,0,0,16.23-6.14,11.94,11.94,0,0,0,4-5.55c.26-.81,0-1.16-.67-1.49s-1.07-.7-1.75,0c-1.45,1.48-3,2.87-4.53,4.28a47.92,47.92,0,0,1-4.37,3.54,22.49,22.49,0,0,1-13.51,4.09,8.69,8.69,0,0,0-7.31,3.44C89.48,43.51,89.51,43.88,90.63,45.45Zm2,7a20.25,20.25,0,0,0,6.85,6.12,1.12,1.12,0,0,0,1.41-.16,18.79,18.79,0,0,0,4.68-4.9c2-3.32,2.19-2.44-.85-4.84-2.6-2.06-4.9-2-7.53,0C95.59,49.83,94.16,51.15,92.59,52.48Zm24.22-27A7,7,0,0,0,113,26.71a45.92,45.92,0,0,1-8.2,4.34c-6.33,2.91-13,3.8-19.84,4-1.36,0-2.72.16-4.35.27a43.22,43.22,0,0,1,6.6,5.55,10.65,10.65,0,0,1,9.2-4.94,36.6,36.6,0,0,0,4-.3C107.32,34.74,111.74,29.89,116.81,25.43Zm4.77,117.29h1.1a14.44,14.44,0,0,1,7.29,1.46c3.42,1.73,7.15,1.63,10.9,1.64.19-2.53.34-4.93.76-7.31C137.18,137.84,126.09,140.14,121.58,142.72Zm15.94-5.39a47.88,47.88,0,0,1-9.28-4.05,1.34,1.34,0,0,0-1.79.14,164,164,0,0,0-14.09,12.79c-.51.52-1,1.07-1.48,1.61l.16.26C118.67,141.49,127.63,138.3,137.52,137.33ZM92.82,50.56c1.09-1,2.16-1.91,3.27-2.82a7.23,7.23,0,0,1,7.38-1.45,1.83,1.83,0,0,0,1.36-.16,186.06,186.06,0,0,0,18.62-8.67,49.52,49.52,0,0,0,6-3.74,10.78,10.78,0,0,0-3-3.25l-.22.26c-5.47,8.4-13.48,12.36-23.23,12.89A13,13,0,0,0,92.9,49,1.15,1.15,0,0,0,92.82,50.56Zm32.49,16c-3.3-3.29-7-5.81-10.46-8.76-1.64,3.25-1.81,6.57-1.87,10A29.16,29.16,0,0,0,125.31,66.6Zm-11.71-23a16.31,16.31,0,0,0,5.53,4.16,2.36,2.36,0,0,0,2.55-.16,9.2,9.2,0,0,1,2.39-1.07A2.1,2.1,0,0,0,125.56,45c.69-2.4-.08-4.51-1.25-6.65ZM123.94,28a12.81,12.81,0,0,1-3.43,5.55,27,27,0,0,1-12.05,6.75c-3,.84-6,.52-9,.94a10.36,10.36,0,0,0-7.35,4,2.1,2.1,0,0,0,0,3c.44-.5.84-1,1.28-1.45A12.16,12.16,0,0,1,102,42.61a29.38,29.38,0,0,0,15.67-4.78,23.12,23.12,0,0,0,7.89-8.39ZM60,69.17a26.43,26.43,0,0,0-5.11,0,43.71,43.71,0,0,0-15.84,5.45,2.17,2.17,0,0,1-3-.33c-5-4.52-10.09-9-15.13-13.43-1.5-1.33-3.38-2.37-3.57-4.75a6.1,6.1,0,0,0-2.28,1.63C22.4,64.1,29.68,70.42,36.69,77,45,71.84,47.86,70.89,60,69.17Zm25.55-10.7c-2.42,1.68-5.08,2.38-7.71,3.2a6.67,6.67,0,0,0-3.39,2.6,25,25,0,0,0,10.9,3.27A22.58,22.58,0,0,0,85.57,58.47Zm-9,25.33c-1.65,2.75-4.15,4.37-6.7,6a4.58,4.58,0,0,0,3.73,1.81,15.12,15.12,0,0,1,3.21.26,11.42,11.42,0,0,1,3.61,1.72c.08-1.29.15-2.44.22-3.59a1.3,1.3,0,0,0-.25-.9C79.11,87.38,77.88,85.67,76.53,83.8Zm58.86-18.67c-1.6-3.28-4.87-3.09-7.65-4a6.83,6.83,0,0,1-3.16,3c1.2,1.27,2.43,2.47,3.53,3.77a1.69,1.69,0,0,0,2,.59A12.22,12.22,0,0,0,135.39,65.13ZM108.13,51.28a19.61,19.61,0,0,1-5.58,7.22c-2.87,2.25-1.85,2.06-4.84.36a18.18,18.18,0,0,1-2.23-1.6,22.1,22.1,0,0,1-3.83-4.07l-1,.93a24.06,24.06,0,0,0,8.72,8.2,1.38,1.38,0,0,0,1.79-.15,24.78,24.78,0,0,0,7.56-9.27C109.12,52.12,108.94,51.64,108.13,51.28ZM73,66.58c4.91,2.37,10,3.86,15.5,3.41.36-4.54.8-9-.84-13.42l-1.2.87c1.07,3.75.55,7.44,0,11.21-4.63.11-8.72-1.4-12.71-3.47Zm68.18-24.1a49.1,49.1,0,0,0,.76,7.47,1.3,1.3,0,0,0,.4.84L147,54.51C147.91,49.13,145.62,44.31,141.17,42.48Zm-14.69,3.3c.78,0,.86-.49,1.09-.83a7,7,0,0,1,7.34-2.87c2.85.54,4.15,2.43,4.62,5.1.08.43.13.87.17,1.31s.31.83,1,.9a46.39,46.39,0,0,1-.6-7.46.75.75,0,0,0-.38-.7c-1.31-.81-2.61-1.64-3.92-2.46-1.58,1.65-3.13,3.31-5.57,2.89-2.27-.39-3.34-2.44-4.8-4C126.5,40.28,127.53,42.85,126.48,45.78Zm5.07,28.43a23.23,23.23,0,0,0-4.67,7.48,31.36,31.36,0,0,0,8.6,0A29.73,29.73,0,0,0,131.55,74.21ZM18.83,56.5a1.61,1.61,0,0,0,.68,1.62l17.6,15.5c.19.17.36.46.79.26a1.88,1.88,0,0,0-.53-2.07c-4.23-4-8.58-7.88-13.13-11.51A38.22,38.22,0,0,0,18.83,56.5ZM119.71,25.75a1.37,1.37,0,0,0-2,.25c-1.9,1.89-3.89,3.67-6,5.37-4.32,3.56-9.1,5.73-14.84,5.61a9.6,9.6,0,0,0-8.43,3.91c-.6.81-.47,1.32.37,1.88a8.5,8.5,0,0,1,3.84-4,12.9,12.9,0,0,1,6-1.37,19.56,19.56,0,0,0,11.56-3.51C113.72,31.6,116.61,28.62,119.71,25.75Zm-9.35,44.37a33.35,33.35,0,0,0,16.44-1.85c-.29-.8-.74-.78-1.36-.57a30.79,30.79,0,0,1-13.61,1.17c0-4.16.17-8.2,2.22-11.9a1.93,1.93,0,0,0-1-.79C110.49,60.48,110.48,65.25,110.36,70.12ZM127.23,102a19,19,0,0,0,6.51-4.73,19.15,19.15,0,0,0-6-5.52A82.5,82.5,0,0,1,127.23,102ZM116.1,137.71c-3,.54-6,1.07-8.24-1.9-.69,4.11-.43,7.67.71,9.63A82,82,0,0,1,116.1,137.71Zm20.67-56.46A36.81,36.81,0,0,1,139,90.17a13.31,13.31,0,0,0,3.52,0c.21-2.51-1.26-7.57-2.88-10-.42.21-.84.44-1.28.61S137.34,81.08,136.77,81.25ZM37.59,70.39C46,63.9,55.32,62.14,65.51,65.48,57.69,60.14,45.84,62.63,37,69.74A1.12,1.12,0,0,0,37.59,70.39Zm94.12,1.79a45.06,45.06,0,0,1,3.2,5.11.92.92,0,0,0,1.16.57,6,6,0,0,0,1.89-.68c.31-.2.63-.41.5-.85-.65-2.25-1.32-4.49-2-6.86A12.31,12.31,0,0,1,131.71,72.18Zm-93.27-.63c.51-.25.86-.39,1.19-.57a41.63,41.63,0,0,1,7-3.06c6.27-2,12.56-2.94,18.87-.14.62.27.72-.19,1-.53C58.86,63,43,65.34,38.44,71.55Zm96.27-33.46-4.34-3.61L126.65,37C129.08,41.11,131.64,42,134.71,38.09Zm-6.92,51.1c0,1.16,0,1.16.81,1.68a20.48,20.48,0,0,1,6.54,6.46,20.21,20.21,0,0,1-7.31,5.61c-.6.29-1.15.56-.79,1.44,3.81-1.67,7.31-3.72,10-7A25.08,25.08,0,0,0,127.79,89.19Zm-51-86c-1.13-.45-1.72-.34-2.12.82C72.5,10.36,70.24,16.73,68,23.12c-.09.28-.44.62.17,1.16C71.07,17.19,73.92,10.2,76.8,3.14ZM65.22,24c1,.14,1.38-.15,1.66-1,1.67-4.9,3.41-9.78,5.11-14.67.6-1.71,1.18-3.42,1.79-5.18-1-.16-1.15.38-1.36,1q-1.94,5.34-3.88,10.67C67.44,17.87,66.35,20.9,65.22,24Zm63.67,86.48c5.72,1,10.69-1.15,11.85-5.11-.66-.13-1.15-1.09-2-.3A26.54,26.54,0,0,1,128.89,110.49Zm-.23-64.93c3.67-.6,6.68,1.06,9.74,2.6a4.48,4.48,0,0,0-3.07-4.83A5.68,5.68,0,0,0,128.66,45.56ZM79.4,75.06a29,29,0,0,1,.53,10.37c-.19,1.09-.2,1.09.76,2,1.31-4.71.54-9.32-.27-14a10,10,0,0,0-6,1.93c-.44.35-.77.7-.26,1.33A8,8,0,0,1,79.4,75.06ZM71.67,26.35a2.74,2.74,0,0,0,.18-.32Q75.9,16.07,80,6.1a1,1,0,0,0-.39-1.39,1.19,1.19,0,0,0-.15.21c-2.78,6.7-5.54,13.4-8.34,20.1C70.78,25.73,71.18,26,71.67,26.35Zm33.71,20.8c.66.55,1.27,1.05,1.86,1.56a3.1,3.1,0,0,0,4.13.35,1.79,1.79,0,0,0,.92-2.12,4.28,4.28,0,0,0-1.2-2.17ZM65.24,68.86c-7.53-3.17-14.62-1.39-21.63,1.48-3.52,1.44-4.25,2-4.35,2.81A50.23,50.23,0,0,1,49.89,69c4.89-1.24,9.8-1.78,14.65.28C64.75,69.33,64.92,69.32,65.24,68.86ZM139,94.42a38.44,38.44,0,0,1-.55,5.25c-.16.9.67,1.06,1.26,1.33.44.21.88.34,1.21-.24a11.62,11.62,0,0,0,1.63-6A14.4,14.4,0,0,1,139,94.42ZM78.46,76.26a5.59,5.59,0,0,0-3,.91.81.81,0,0,0-.36,1.26,45.39,45.39,0,0,0,2.64,4.66A4.46,4.46,0,0,0,79,84.59,28.2,28.2,0,0,0,78.46,76.26Zm34-32c1.8,4.23,1.69,4.51-2.77,6.72.48.41.68,1.2,1.62.68a17.22,17.22,0,0,1,7.87-2.54A21.45,21.45,0,0,1,112.44,44.25ZM77.85,3.5c-2.78,6.84-5.54,13.62-8.29,20.41-.11.27-.38.62.09.79s.5-.31.6-.56q4.06-9.83,8.11-19.65C78.56,4,78.62,3.64,77.85,3.5ZM71,27.69a4.79,4.79,0,0,0-3-2.42c-2.22-.68-3-.14-2.94,2.12v1a4.16,4.16,0,0,1,4,1.37Zm91.57,75.54c-1.18,0-2.94,1.31-3,2.22s1.51,2.27,2.83,2.26a2.27,2.27,0,0,0,2.16-1.87C164.56,104.67,163.45,103.24,162.53,103.23Zm-9.79,9.19c1-.55,2.17-.59,2.65-1.46s-.59-1.33-1-1.93a2.78,2.78,0,0,0-.43-.41c-1.81-1.7-2.12-1.64-3.1.72-.17.4-.66.89-.25,1.3C151.23,111.3,152,111.84,152.74,112.42ZM86.58,55.73a37.85,37.85,0,0,0-8.69,2.4,20.78,20.78,0,0,0-7.51,4.77,8.46,8.46,0,0,0-2.17,3.55c.71-.32.72-.31.92-.61A17.93,17.93,0,0,1,80.9,57.75,16.6,16.6,0,0,0,86.58,55.73Zm84.67,33.52A5,5,0,0,0,170.2,89a1.9,1.9,0,0,0-2,1.31c-.32,1.06-.51,2.21.33,3,.65.63,1.49.09,2.23-.22a.82.82,0,0,0,.53-.93C171.24,91.24,171.25,90.29,171.25,89.25ZM116.11,56.78l-.14.27c1.6,1.31,3.19,2.64,4.8,3.94,1.43,1.15,2.64.88,3.7-.86A82.79,82.79,0,0,1,116.11,56.78Zm14.29,15.7a25.4,25.4,0,0,0-5.24,6.61c-.61,1-.61,1.78.48,2.44a25.87,25.87,0,0,1,5-7.9C131.12,73.08,130.79,72.82,130.4,72.48Zm-11.21,62.87c-3.7-.26-7.1.48-10.56-.8a3.51,3.51,0,0,0,3.1,2.36C114.24,137.13,116.56,136.32,119.19,135.35Zm-7.77-82.47c1,.84,1.68,1.84,2.85,2.36a23.57,23.57,0,0,1,3.58-4.87A18.68,18.68,0,0,0,111.42,52.88Zm18.39,16.79c1.16,1.72,1.16,1.72,2.82,1A13.7,13.7,0,0,0,135.25,69a1.87,1.87,0,0,0,.55-2.67C134,67.84,132.22,69.24,129.81,69.67Zm-3.52,13a1.42,1.42,0,0,0,1.6,1.42c1.23,0,2.47,0,3.7.07a19,19,0,0,0,4.74-.47c0-.66-.08-1.1-.87-.87a5.2,5.2,0,0,1-1.18.12A42.73,42.73,0,0,1,126.29,82.72ZM81.82,58.8a16.28,16.28,0,0,0-11.95,8,3.42,3.42,0,0,0,1.53.8,12.87,12.87,0,0,1,3.77-5.91C77,60.16,79.55,60,81.82,58.8Zm78.81,52.83c-1.07,0-1.8,1-1.79,2.4,0,1.09.7,1.34,1.58,1.33,1.21,0,1.82-.65,1.78-1.74C162.16,112.37,161.55,111.6,160.63,111.63Zm-10.5-49.07c.84-.13,1.73-.15,2.05-1.13.09-.26-1.46-1.75-1.78-1.78-.7,0-1.74,1-1.77,1.84C148.6,62.59,149.51,62.38,150.13,62.56Zm-7.38,30.86a5,5,0,0,0-.1-2h-3.59c-.15,1.85,0,2,1.7,2.1A5.28,5.28,0,0,0,142.75,93.42Zm-12-43.37a4.32,4.32,0,0,0,0-2.93c-1.46-.21-2.83.86-3.33,2.62A4.51,4.51,0,0,1,130.78,50.05Zm38,50.09,1.92-2.49c-1.16-1.06-1.82-1.17-2.48-.45S167.58,99,168.79,100.14ZM92.47,97.55c-1.83-1.78-4.24-1.74-5.36.11A11.43,11.43,0,0,1,92.47,97.55Zm50.64-12.84a1.55,1.55,0,0,0,.49-2.13c-.42-1-.83-2.13-2.3-2.24ZM135.9,79c.43,1.29.59,1.37,2.06.74.7-.3,1.68-.55,1-1.78A7,7,0,0,1,135.9,79Zm-9.21-18.34c-1.75.06-2.22,1.85-3.78,2.1C124.07,63.44,125.62,62.51,126.69,60.64Zm32.87,6.92-3.05-2.36C156.41,66.87,157.42,67.67,159.56,67.56ZM86.74,99.13a4.54,4.54,0,0,0,2.3.94l-.4-1.49A4.51,4.51,0,0,0,86.74,99.13Zm50.62,4.14-1.18,2.23a7.4,7.4,0,0,0,2.13-1.76Zm2.42-1-1.66-.79c-.36.35-.45.68,0,.94S139.26,103.18,139.78,102.27Z"></path><path class="cls-3" d="M94.22,143.05a.4.4,0,0,0,0,.52A.4.4,0,0,0,94.22,143.05Z"></path><polygon class="cls-3" points="108.89 150.07 108.85 150.02 108.83 150.09 108.89 150.07"></polygon><path class="cls-2" d="M164.37,132.29a.93.93,0,0,0-1.1.15c-8.57,6.18-17.83,6.34-27.45,3.08A44,44,0,0,1,128,131.9c-2.63-1.51-3.87-4.07-5.11-6.61a61.73,61.73,0,0,1-3.29-8.58,1.2,1.2,0,0,1,.43-1.53,22.76,22.76,0,0,0,3.84-3.76c.64-.79,1.63-.43,2.45-.23a18.46,18.46,0,0,0,8.16.41c3.4-.72,4.85-1.83,7.4-5.5a49.93,49.93,0,0,1,7.38,5.38,124.42,124.42,0,0,1,10.77,10.4c.29.32.53.83,1,.68s.51-.75.58-1.22A42.75,42.75,0,0,1,174,96.68a4.69,4.69,0,0,0,.46-.54,1.62,1.62,0,0,0,.13-.33c-3-2.55-2.33-5.91-1.89-9.11.27-2,.82-4,.61-6-.31-3.06-2.14-5.26-4.24-7.28-2.75-2.64-6-4.65-8.93-7-4-3.26-7.78-6.75-11.59-10.22a1.33,1.33,0,0,1-.43-1.47,11.82,11.82,0,0,0-6.06-13.33,52.34,52.34,0,0,1-10.29-7.16c-1.66-1.55-3.14-3.29-4.73-4.91a20,20,0,0,0-5.44-4.05,9,9,0,0,0-9.51.62A47.56,47.56,0,0,1,94.29,33a83.18,83.18,0,0,1-10.7.91c-4.23.25-8.47-.15-12.68.38-1.37.17-2.74.42-4.11.62-.41.06-.82.1-1.54.18,2.16-2.19,4.09-4.19,6.06-6.15a6.19,6.19,0,0,0,1.45-2.15c1.88-4.64,3.8-9.27,5.71-13.9,5,.41,9.87,1.3,14.25,3.92a6.36,6.36,0,0,1,2.18,2,1.06,1.06,0,0,0,.84.59A11.93,11.93,0,0,1,100.11,21a10,10,0,0,0,1.65.7c1.33.4,2.12-.14,2.15-1.53a11.1,11.1,0,0,1,.54-3.4,3.79,3.79,0,0,1,3.72-2.65c3.3-.2,6,1.33,8.72,2.88a16.43,16.43,0,0,0,6.46,2.36,6.54,6.54,0,0,0,4.11-1A10,10,0,0,1,137.7,18a4.55,4.55,0,0,1,2.68,4.19,7.29,7.29,0,0,0,.71,2.64,24,24,0,0,0,4.6,6.93,95.21,95.21,0,0,1,8,12.78,14,14,0,0,1,1.61,5.7c.08,2.35.72,3,3,3.64,3.43.95,4.7,3,4.22,6.62-.3,2.36.11,4.41,3.13,5.15,2.71.67,4.61,2.79,6.39,4.86.86,1,1.55,2.13,2.39,3.14,1.38,1.68,3,3,5.35,2.94A5.86,5.86,0,0,0,181.8,76a98.14,98.14,0,0,1,15-4.47,3.91,3.91,0,0,1,.49,0c.43.41.37.94.41,1.45.48,6.07-1.67,11.42-4.51,16.6-2.48,4.54-6.06,8.21-9.41,12.06-5.9,6.78-11.8,13.54-17.78,20.25a8.7,8.7,0,0,0-2,6.89C164.08,129.92,164.24,131.11,164.37,132.29Z"></path><path class="cls-4" d="M80.9,4.37c-2.23-2.64-5.1-2.95-8.24-2.24A2.49,2.49,0,0,1,75.27,0,6.4,6.4,0,0,1,80,1.35C80.84,2.13,81.47,3.08,80.9,4.37Z"></path><path class="cls-3" d="M30.64,33.56c-.6,1.78-1.2,3.47-1.71,5.18a1.22,1.22,0,0,1-1.37,1c-1.07,0-2.15,0-3.23,0s-1.49-.43-1.08-1.7Q25.11,32.32,27,26.59l3.48-10.54c.15-.46.23-.94.85-1s.81.4,1,.84q5.23,10.67,10.47,21.32c.64,1.31.35,1.57-1.1,1.74-2.81.34-5-.14-5.76-3.31-.42-1.84-1.63-2.41-3.42-2.1A11.82,11.82,0,0,1,30.64,33.56Zm-5.7,4.52c.45,0,.73,0,1,.06,1.14.21,1.71-.26,2-1.41s.82-2.41,1.15-3.64a1.39,1.39,0,0,1,1.64-1.17,26.78,26.78,0,0,0,3.47,0,2.08,2.08,0,0,1,2.53,1.55,16.82,16.82,0,0,0,1.1,2.26c.93,1.86.93,1.86,3.21,1.52C37.9,30.88,34.79,24.57,31.54,18,29.29,24.8,27.14,31.36,24.94,38.08Z"></path><path class="cls-5" d="M86.57,100.45a8.57,8.57,0,0,0,8.27-.18c.57-.31.92-.67.5-1.32a7.85,7.85,0,0,0-4.52-3.71c-2-.54-3.65.25-5,1.88a7.89,7.89,0,0,1-1.47-4.66c3.09-.14,6.14-.6,9,1.51-1.16-3-5.87-4.39-9-2.9A12.49,12.49,0,0,1,85,87a47.14,47.14,0,0,1,4-8.28c1.48-2.42,3.91-3.66,6.27-5,3-1.72,5.71-1.42,8.72,0a24.75,24.75,0,0,1,10.82,9.63c2.61,4.31,5.38,8.52,6.93,13.34a36.6,36.6,0,0,1,1.83,12.35,3.88,3.88,0,0,1-1.5,2.63,50.77,50.77,0,0,1-12.9,9,17.7,17.7,0,0,1-10,1.89A3.33,3.33,0,0,1,96.41,121,49,49,0,0,0,89.86,112a11.09,11.09,0,0,1-3-8.23A8.63,8.63,0,0,0,86.57,100.45Zm16-6.61a16.82,16.82,0,0,1,5.38-2.49c2.58-.57,5.06.13,7.58.39a6.19,6.19,0,0,0,2.55.17C114,87,105.4,89.39,102.37,93.66c-.15.11-.36.19-.24.53Zm5.91,6.65a18.82,18.82,0,0,0,11.19-3.62c.87-.65.85-1,0-1.59a16.2,16.2,0,0,0-3.73-1.9c-5.51-1.82-9.66.35-12.24,5.41-.37.72-.26,1.19.67,1.32A30.12,30.12,0,0,0,108.45,100.49Zm-15.84,11.8c.22,2.45,1.27,4.12,3.59,4.83a9.12,9.12,0,0,0,9.93-3.2,3.32,3.32,0,0,1,2.47-1.78c.37,0,.85-.22.68-.77s-.6-.42-.92-.3a3.07,3.07,0,0,1-2.73-.35c-.77-.42-1.52-.88-2.27-1.32-1.64-1-3.3-1.46-5-.26a.62.62,0,0,1-.75,0c-1.79-1-3.22-.2-4.55,1-.5.45-.9,1-1.7,1a.53.53,0,0,0-.56.62c0,.41.34.49.69.51ZM103,104.92c-.08-.39.24-1.06-.44-1.15s-.52.65-.68,1,.07,1.15-.67,1c-1.79-.32-3.45,1.71-5.28.25-.06,0-.23,0-.34.08-1,.32-1.21-.23-1.22-1,0-.32,0-.64,0-1a.45.45,0,0,0-.37-.42.5.5,0,0,0-.52.21c-.63.81-.16,3.14.81,3.22,1.33.12,2.58.61,3.9.67a1.68,1.68,0,0,0,1.18-.52,1.59,1.59,0,0,1,1.34-.36C102.38,107.09,102.92,106.62,103,104.92Z"></path><path class="cls-6" d="M167,73.12a17.19,17.19,0,0,1,3.46,3.46c2,2.55,2.07,5.44,1.47,8.44-.2,1-.47,1.93-.73,3-1.69-.16-3.44-.2-4.13,1.85a4.23,4.23,0,0,0,.48,4.21c.68.85,1.46.79,4.16-.07l1.32,2.08-1.11,1c-.94-.74-1.87-1.61-3.23-1.4a2.14,2.14,0,0,0-1.41.82c-1.2,1.42-.9,2.91,1,5l-2.64,4.19c-.45-1.36-.73-2.73-2.12-3.33a3.13,3.13,0,0,0-2.33,0c-2.13.79-3.19,2.35-2.64,3.91.73,2.08,3,2.93,5.74,2.08L163,111.57c-1.57-1.14-2.89-1.31-4-.55a3.71,3.71,0,0,0-1.16,3.89c.6,1.78,2.11,1.5,3.61,1.45-.29,1.44-.57,2.81-.89,4.38-2.42-2.52-4.73-4.91-7.23-7.22a7.11,7.11,0,0,1,2-1c1.4-.74,1.72-1.76.83-3a12.79,12.79,0,0,0-3-2.94c-.86-.64-1.67-.26-2.32.47a11,11,0,0,0-1.58,3,52.08,52.08,0,0,0-9.26-6.15,13.13,13.13,0,0,0,3.66-7.32,26.73,26.73,0,0,0-.34-9.27c-.16-.8-.16-1.33.64-1.78a2,2,0,0,0,.91-1.73,4.34,4.34,0,0,0-3.72-4.49c-.6-.07-.68-.44-.81-.84a87.8,87.8,0,0,1-3.18-11.47,7.19,7.19,0,0,0-6-6.15,68.58,68.58,0,0,1-13.75-4.67c-.61-.28-1.23-.52-1.92-.8a16.72,16.72,0,0,1,12.37-8.52c-.52.71-1,1.29-1.38,1.92a1.44,1.44,0,0,0-.11,1.69,1.4,1.4,0,0,0,1.63.45,3.05,3.05,0,0,1,2.18.21c.86.37,1.5,0,1.8-1s-.15-2.13,0-3.35c7.13,2.11,12.31,6.95,17.57,11.88-1.14.7-2.05,1.49-2.07,2.89a1.83,1.83,0,0,0,1.69,2.07A3.77,3.77,0,0,0,153.34,62c.73.64,1.4,1.25,2.09,1.83a.61.61,0,0,1,.15.84,2.42,2.42,0,0,0,.49,3,3.65,3.65,0,0,0,3.74,1,1.79,1.79,0,0,1,1.94.36c1.38,1.14,2.95,2.05,4.24,3.31l-.26.26c-2.8-.45-4.2,1-3.73,3.72a2.36,2.36,0,0,0,2.84,2c2.51-.45,3.35-2.54,2-4.94Zm-17.57-4.51c-.63-.68-1.05-1.74-2.26-1.66-4.15.28-7,1.89-6.83,6.5.07,2.71,1.86,4.06,4.5,3.35a5.45,5.45,0,0,1,1.88-.3c1.36.13,1.74.62,1.44,2a3.85,3.85,0,0,0,.36,3.13,4.61,4.61,0,0,1,.67,3.07,9.33,9.33,0,0,0,.05,1.67,1.74,1.74,0,0,0,2.51,1.52,5,5,0,0,0,3.21-3.3c.16-.39.21-.8.78-.91a1.6,1.6,0,0,0,1.27-2.1,5.07,5.07,0,0,1,1.23-4.33c.5-.66,1.06-1.3,1.59-1.94a.69.69,0,0,0,.12-.88.5.5,0,0,0-.64-.15c-1.35.56-2.21-.24-3-1.13a16.61,16.61,0,0,1-1.94-2.87C152.9,67.63,152.17,67.39,149.47,68.61Zm11,21.53c-2,0-3.24,1.09-3.27,2.84a3.59,3.59,0,0,0,3.39,3.86c2.12,0,3.5-1.1,3.51-2.87A3.55,3.55,0,0,0,160.5,90.14Zm-33.38-36.9a15.49,15.49,0,0,0-1.67,0c-1,.12-1.42.73-1,1.67a13,13,0,0,0,2.12,3.31c.47.54,1.25.76,1.64.1.58-1,1.45-1,2.37-1.24,1.09-.23,1.39-1,1-2a3.1,3.1,0,0,0-1.7-1.6A6.23,6.23,0,0,0,127.12,53.24Zm27.79,50.12c2,0,3.35-1,3.39-2.59a3.18,3.18,0,0,0-3.22-3.12,3.87,3.87,0,0,0-3.33,3.23C151.71,102.15,153.23,103.34,154.91,103.36Zm-18.23-51c-1.72-.06-2.62.82-2.58,2.4a4.27,4.27,0,0,0,1.2,2.8,1.74,1.74,0,0,0,3.06-.2,10.33,10.33,0,0,1,1.22-1.59,1.77,1.77,0,0,0-.91-3.11C138,52.46,137.26,52.41,136.68,52.32Zm28.1,34.79c1.42,0,3.79-2.32,3.9-3.74a1.26,1.26,0,0,0-1.1-1.47,6.62,6.62,0,0,0-4,.3A2.47,2.47,0,0,0,162,84.94,3.06,3.06,0,0,0,164.78,87.11Zm-19.65,7.35c0,2,.59,2.65,2.36,2.66a3.53,3.53,0,0,0,3.69-3.42c0-1.31-1-2-3-2C145.93,91.65,145.14,92.36,145.13,94.46ZM137.5,64c0,2,.92,3.4,2.28,3.39,1.16,0,3-1.67,3-2.7,0-1.45-1.6-2.83-3.31-2.8C138.14,61.86,137.5,62.53,137.5,64Z"></path><path class="cls-7" d="M145.58,183.63c-1,.27-1.92.49-2.85.83a2.74,2.74,0,0,0-2.1,3.08,6.36,6.36,0,0,1-2.13,5,14.66,14.66,0,0,0-3.2,4.59,11.65,11.65,0,0,1-4.71,5.4,38.89,38.89,0,0,0-5.63,4.64,10.9,10.9,0,0,1-5.07,2.79,5.15,5.15,0,0,1-3.37-.45,7.45,7.45,0,0,0-7.1-.22,9.62,9.62,0,0,1-6,.5c-2.08-.35-2.85-1.75-2.31-3.92a8.54,8.54,0,0,0,.25-3.89,7.77,7.77,0,0,0-2.73-4.65,16.16,16.16,0,0,1-6.21-13A20.51,20.51,0,0,0,87,170.11c-4.2-4.62-4.74-8.9-1.86-14.48,1-2,2.31-3.83,2.94-6a21.33,21.33,0,0,0,.8-6.74c0-.59,0-1.18,0-1.85a14.54,14.54,0,0,0,4.52.22c-.34,1.57-.72,3.06-1,4.57a98.16,98.16,0,0,0-1.22,15A42.35,42.35,0,0,0,92.5,174c2.41,8.09,7.18,14.62,13.46,20.12.9.79,1.9,1.46,2.8,2.25s1.31.55,2-.17A47.07,47.07,0,0,1,125.53,186a33.58,33.58,0,0,1,19.61-2.7c.14,0,.28.07.42.1Z"></path><path class="cls-8" d="M150,167.74c-2.3,2.2-1.73,4.61-.69,7,.62,1.43,1.4,2.8.95,4.45a5.72,5.72,0,0,1-2.28,3.13,1.16,1.16,0,0,1-1,.17,36.55,36.55,0,0,0-11.64-.55,19.87,19.87,0,0,0-4.28-7.08c-3.52-3.62-7.63-6-12.85-6a5.86,5.86,0,0,1-4.65-2.58,10.27,10.27,0,0,1-2-3.77,14.37,14.37,0,0,0-4.84-7.11c-1.28-1.14-2.64-2.2-3.93-3.33a21.09,21.09,0,0,1-6.42-10.33,1.67,1.67,0,0,1,0-.44,8.28,8.28,0,0,1,3.32,1.78,32.6,32.6,0,0,1,7.38,8.74c.77,1.23,1,1.24,1.86.14,2.24-2.75,2.78-2.9,6.17-1.83a13.87,13.87,0,0,1,6.4,4.24,42.79,42.79,0,0,0,5.68,5.66,9.53,9.53,0,0,0,6.17,2.16,27,27,0,0,1,16.07,5C149.53,167.35,149.7,167.51,150,167.74Z"></path><path class="cls-7" d="M142.83,138.4c7.54,1,14.47-.36,20.66-4.71,2,5.5,3.79,11,3.94,16.86a9.16,9.16,0,0,1-2.25,6,31.72,31.72,0,0,1-8.16,7,3.29,3.29,0,0,1-2.44.18c-6.41-1-10.22-4.87-11.74-11.06A33.07,33.07,0,0,1,142.83,138.4Z"></path><path class="cls-9" d="M65.24,64a15.3,15.3,0,0,0-6.8-2.3c-7.27-.93-13.63,1.56-19.64,5.3-.91.57-1.77,1.22-2.75,1.89a101,101,0,0,0-20.71-19,43.7,43.7,0,0,1,9.34-3.95c7.93-2.34,15.83-2.55,23.7.34,2.24.82,3.83,2.54,5.57,4A53.81,53.81,0,0,1,65,62.84c.2.32.72.63.28,1.13ZM52.54,52a2.23,2.23,0,0,1-1.95-.4,3.79,3.79,0,0,0-4.25-.37,8.5,8.5,0,0,1-4.6.89,10.44,10.44,0,0,0-5.42.45,13.25,13.25,0,0,1-3.92,1,4.83,4.83,0,0,0-3.52,1.78c-.26.33-.5.7-.14,1.06s.73,0,1-.28a4,4,0,0,1,2.89-1.44,11.13,11.13,0,0,0,3.48-.77A9.54,9.54,0,0,1,41,53.19c1.51.13,3,.33,4.45-.41,1.9-1,3.73-1.32,5.47.31a.87.87,0,0,0,.43.17C52.22,53.43,52.74,53.19,52.54,52Zm-8.38,7.25c-.89,0-1.61,0-2.33,0a7.41,7.41,0,0,0-4.62,2c-.34.29-.54.65-.25,1s.58.2.84-.05c1.92-1.9,4.32-2,6.8-1.82a6.44,6.44,0,0,0,3.74-.51,6,6,0,0,1,5.38-.35,19.86,19.86,0,0,0,5.78,1.39c.4,0,.87.06.88-.52s-.41-.48-.78-.53a33.45,33.45,0,0,1-6.45-1.68,5.14,5.14,0,0,0-4.18.17A8.72,8.72,0,0,1,44.16,59.25ZM27.21,52.51a.71.71,0,0,0,.71-.31,2.48,2.48,0,0,1,3-1,3.49,3.49,0,0,0,2.12,0c2.24-.83,4.68-.91,6.9-1.83a5.2,5.2,0,0,1,5.22.46c.36.24.67.41,1.1.18.2-.84-.43-1.14-1-1.46a5.44,5.44,0,0,0-4.62-.55c-2.22.82-4.6,1-6.78,1.84a4.84,4.84,0,0,1-3.27.12,3.09,3.09,0,0,0-3.4,1.18A.87.87,0,0,0,27.21,52.51Zm8.14-4.84c.25,0,.84-.09,1.43-.21.43-.08,1-.22.83-.79s-.7-.41-1.1-.31a5.3,5.3,0,0,1-2.82,0,2.5,2.5,0,0,0-2.88,1,1.88,1.88,0,0,1-2.17.77,3.12,3.12,0,0,0-2.72.58,2.2,2.2,0,0,1-2.53.31,3.16,3.16,0,0,0-4,1.33c-.23.36-.58.78,0,1.13s.69-.15.94-.44c1.13-1.33,1.45-1.42,3.07-.83a2.56,2.56,0,0,0,2.72-.22,3.26,3.26,0,0,1,2.78-.71c.73.12,1.64.2,2-.38,1.07-1.61,2.44-1.62,4-1.14Zm9.47,8.69,3.9-.47c.47,0,1.09,0,1-.7s-.69-.45-1.15-.39a19.35,19.35,0,0,1-6.17.19,3.37,3.37,0,0,0-3.05.65,8.12,8.12,0,0,1-4.26,2,5.93,5.93,0,0,0-3.32,1.48c-.26.27-.61.62-.23,1s.67.11.93-.14a5.23,5.23,0,0,1,2.78-1.24,7.54,7.54,0,0,0,4-1.54,4.25,4.25,0,0,1,4.08-1C43.69,56.3,44.13,56.3,44.82,56.36Z"></path><path class="cls-9" d="M95.37,143.66a26.22,26.22,0,0,0,6,8.73c1.54,1.4,3.15,2.71,4.72,4.07a13,13,0,0,1,4.28,6.33,12.24,12.24,0,0,0,2.23,4.2,7.53,7.53,0,0,0,6.06,3c5.46.18,9.54,3,12.81,7.16a16.93,16.93,0,0,1,2.65,5A40.21,40.21,0,0,0,121,187a1.18,1.18,0,0,1-1.49-.21,11.18,11.18,0,0,1-2.81-3.09A15.28,15.28,0,0,0,108,177c-.46-.15-.88-.38-1.33-.55-4.76-1.79-6.77-5.35-6.73-10.31a47.75,47.75,0,0,0,0-6.1,8.34,8.34,0,0,0-2.22-5.17c-2.36-2.3-2.65-5.15-2.55-8.16C95.18,145.7,95.29,144.68,95.37,143.66Z"></path><path class="cls-9" d="M50.82,46.21a18.66,18.66,0,0,1,8.91-7.81c4.66-2.16,9.64-2.81,14.71-3.22a10.11,10.11,0,0,1,7.79,2.73c4.09,3.49,7.71,7.27,9.32,12.59a1.6,1.6,0,0,1-.49,1.75c-1.48,1.71-3.48,2.06-5.52,2.46a39.69,39.69,0,0,0-10.71,3.56A16.39,16.39,0,0,0,67.46,65a43.45,43.45,0,0,0-7.25-10.22A79,79,0,0,0,50.82,46.21Zm9.47,4.47a9.21,9.21,0,0,0,2.07-1.54,13,13,0,0,1,5.44-2.85c1.14-.22,1.23-.5.52-1.48a47.54,47.54,0,0,1-2.81-4,1.27,1.27,0,0,0-1.73-.68,17.11,17.11,0,0,0-7.94,5.09c-.34.38-.6.74-.18,1.36C58.79,46,59.41,48.53,60.29,50.68Zm23.49-2.8c.44.12.77,0,.8-.46s-.29-.58-.7-.64a17.49,17.49,0,0,0-5.82.13,30.64,30.64,0,0,0-13,6c-.42.31-.82.64-1.21,1s-.4.54-.16.84.56.23.84,0l.57-.44C70.65,50.11,76.58,47.13,83.78,47.88Zm2.11,2a46.81,46.81,0,0,0-11.58,2.78,45.92,45.92,0,0,0-7.59,3.7c-.41.25-.76.61-.57,1s.66.24,1,0A44.26,44.26,0,0,1,85.7,51.08c.44,0,.81-.17.75-.7A.5.5,0,0,0,85.89,49.9ZM63.32,51.52l.82-.49a35.43,35.43,0,0,1,9.38-4.29c2.09-.6,4.13-1.4,6.18-2.14.44-.16,1.19-.25,1-1s-.87-.26-1.31-.11c-1.57.53-3.11,1.17-4.7,1.65a40.63,40.63,0,0,0-11,4.79c-.31.22-.7.34-.84.79S62.92,51.41,63.32,51.52ZM78.87,37.36a1.65,1.65,0,0,0-.67,0,11.84,11.84,0,0,1-7.52,1.07,3,3,0,0,0-3.14,2.06c-.08.34-.07.64.28.83s.64,0,.75-.34c.53-1.44,1.61-1.51,2.91-1.34a11.83,11.83,0,0,0,6.73-1C78.74,38.42,79.22,38.14,78.87,37.36Zm-7.53,5.81.92-.14c2.28-.33,4.17-1.76,6.39-2.23.49-.1,1.08-.22.93-.82s-.74-.35-1.21-.25c-2.75.57-5.09,2.51-8.06,2.34a.49.49,0,0,0-.48.57.51.51,0,0,0,.53.53Z"></path><path class="cls-8" d="M94.09,144.05c0,1.7,0,3.39,0,5.09a7.89,7.89,0,0,0,2.13,5.68,9.64,9.64,0,0,1,2.68,7.43,36.94,36.94,0,0,0,.19,7.05,9.33,9.33,0,0,0,5.25,7.27c1.57.78,3.18,1.49,4.81,2.12a12,12,0,0,1,5.51,4.26,22.64,22.64,0,0,0,4.48,5.09,62.64,62.64,0,0,0-5.36,3.92c-1.15,1-2.31,2-3.4,3-.52.51-.86.63-1.49.13-8.2-6.45-14.12-14.38-16.12-24.84a45.72,45.72,0,0,1-.46-10.13,98.61,98.61,0,0,1,1.3-14.77c.08-.46.21-.9.33-1.35Z"></path><path class="cls-9" d="M140.89,146.86a44.9,44.9,0,0,0,.78,5.89c1.68,6.77,5.76,11,13,12.15a18.78,18.78,0,0,1-3.47,2c-.36.19-.58-.16-.82-.35a27,27,0,0,0-16.84-5.5c-3.23,0-5.41-1.51-7.53-3.49a35.33,35.33,0,0,1-3.23-3.36,15.29,15.29,0,0,0-10.23-5.8,13.85,13.85,0,0,1,11.71-4.61A12.25,12.25,0,0,1,129.1,145a18.72,18.72,0,0,0,8.56,1.82C138.69,146.88,139.72,146.86,140.89,146.86Z"></path><path class="cls-10" d="M124.87,106.79c-.51-4.07-.91-8.1-2.47-11.87a64.46,64.46,0,0,0-9.82-16.57c-2.92-3.52-7-5.4-11.26-6.89a5.4,5.4,0,0,0-3.76,0c-3.5,1.36-7.07,2.81-9.17,6.13-2.8,4.43-5.42,9-5.32,14.56a10.64,10.64,0,0,0,1,4.49,13.52,13.52,0,0,1,1.54,6.24,16.1,16.1,0,0,1-4-9.45,24.18,24.18,0,0,1,7.69-19.37c2.09-2,4.12-4.12,6.38-6,3.19-2.63,6.45-2.62,9.65,0s6.46,5.61,10.26,7.63c1.51.81,3.08,1.53,4.55,2.39,3.91,2.31,6.27,5.72,6.48,10.28a63.06,63.06,0,0,1-1.12,16.67A4,4,0,0,1,124.87,106.79Z"></path><path class="cls-5" d="M118.37,116.55c1.93,5.51,3.56,11,7.59,15.38-3.16,2.46-13.78,3.24-17.22,1.23,1.52-3.74.05-6.88-2.29-10A57,57,0,0,0,118.37,116.55Z"></path><path class="cls-8" d="M90.63,45.45c-1.12-1.57-1.15-1.94-.09-3.37a8.69,8.69,0,0,1,7.31-3.44,22.49,22.49,0,0,0,13.51-4.09A47.92,47.92,0,0,0,115.73,31c1.52-1.41,3.08-2.8,4.53-4.28.68-.7,1.15-.31,1.75,0s.93.68.67,1.49a11.94,11.94,0,0,1-4,5.55,25.11,25.11,0,0,1-16.23,6.14,20,20,0,0,0-4.86.56A10.34,10.34,0,0,0,90.63,45.45Z"></path><path class="cls-7" d="M92.59,52.48c1.57-1.33,3-2.65,4.56-3.82,2.63-2,4.93-2,7.53,0,3,2.4,2.9,1.52.85,4.84a18.79,18.79,0,0,1-4.68,4.9,1.12,1.12,0,0,1-1.41.16A20.25,20.25,0,0,1,92.59,52.48Z"></path><path class="cls-8" d="M116.81,25.43c-5.07,4.46-9.49,9.31-16.4,10.19a36.6,36.6,0,0,1-4,.3,10.65,10.65,0,0,0-9.2,4.94,43.22,43.22,0,0,0-6.6-5.55c1.63-.11,3-.24,4.35-.27,6.85-.19,13.51-1.08,19.84-4a45.92,45.92,0,0,0,8.2-4.34A7,7,0,0,1,116.81,25.43Z"></path><path class="cls-8" d="M121.58,142.72c4.51-2.58,15.6-4.88,20-4.21-.42,2.38-.57,4.78-.76,7.31-3.75,0-7.48.09-10.9-1.64a14.44,14.44,0,0,0-7.29-1.46Z"></path><path class="cls-7" d="M137.52,137.33c-9.89,1-18.85,4.16-26.48,10.75l-.16-.26c.49-.54,1-1.09,1.48-1.61a164,164,0,0,1,14.09-12.79,1.34,1.34,0,0,1,1.79-.14A47.88,47.88,0,0,0,137.52,137.33Z"></path><path class="cls-8" d="M92.82,50.56A1.15,1.15,0,0,1,92.9,49a13,13,0,0,1,10-5.41c9.75-.53,17.76-4.49,23.23-12.89l.22-.26a10.78,10.78,0,0,1,3,3.25,49.52,49.52,0,0,1-6,3.74,186.06,186.06,0,0,1-18.62,8.67,1.83,1.83,0,0,1-1.36.16,7.23,7.23,0,0,0-7.38,1.45C95,48.65,93.91,49.61,92.82,50.56Z"></path><path class="cls-7" d="M125.31,66.6A29.16,29.16,0,0,1,113,67.85c.06-3.44.23-6.76,1.87-10C118.33,60.79,122,63.31,125.31,66.6Z"></path><path class="cls-10" d="M113.6,43.63l10.71-5.26c1.17,2.14,1.94,4.25,1.25,6.65a2.1,2.1,0,0,1-1.49,1.54,9.2,9.2,0,0,0-2.39,1.07,2.36,2.36,0,0,1-2.55.16A16.31,16.31,0,0,1,113.6,43.63Z"></path><path class="cls-9" d="M123.94,28l1.66,1.43a23.12,23.12,0,0,1-7.89,8.39A29.38,29.38,0,0,1,102,42.61a12.16,12.16,0,0,0-8.69,4.16c-.44.46-.84.95-1.28,1.45a2.1,2.1,0,0,1,0-3,10.36,10.36,0,0,1,7.35-4c3-.42,6-.1,9-.94a27,27,0,0,0,12.05-6.75A12.81,12.81,0,0,0,123.94,28Z"></path><path class="cls-8" d="M60,69.17C47.86,70.89,45,71.84,36.69,77c-7-6.58-14.29-12.9-21.59-19.27a6.1,6.1,0,0,1,2.28-1.63c.19,2.38,2.07,3.42,3.57,4.75,5,4.48,10.13,8.91,15.13,13.43a2.17,2.17,0,0,0,3,.33,43.71,43.71,0,0,1,15.84-5.45A26.43,26.43,0,0,1,60,69.17Z"></path><path class="cls-7" d="M85.57,58.47a22.58,22.58,0,0,1-.2,9.07,25,25,0,0,1-10.9-3.27,6.67,6.67,0,0,1,3.39-2.6C80.49,60.85,83.15,60.15,85.57,58.47Z"></path><path class="cls-6" d="M76.53,83.8c1.35,1.87,2.58,3.58,3.82,5.28a1.3,1.3,0,0,1,.25.9c-.07,1.15-.14,2.3-.22,3.59a11.42,11.42,0,0,0-3.61-1.72,15.12,15.12,0,0,0-3.21-.26,4.58,4.58,0,0,1-3.73-1.81C72.38,88.17,74.88,86.55,76.53,83.8Z"></path><path class="cls-6" d="M135.39,65.13a12.22,12.22,0,0,1-5.29,3.35,1.69,1.69,0,0,1-2-.59c-1.1-1.3-2.33-2.5-3.53-3.77a6.83,6.83,0,0,0,3.16-3C130.52,62,133.79,61.85,135.39,65.13Z"></path><path class="cls-9" d="M108.13,51.28c.81.36,1,.84.6,1.62a24.78,24.78,0,0,1-7.56,9.27,1.38,1.38,0,0,1-1.79.15,24.06,24.06,0,0,1-8.72-8.2l1-.93a22.1,22.1,0,0,0,3.83,4.07,18.18,18.18,0,0,0,2.23,1.6c3,1.7,2,1.89,4.84-.36A19.61,19.61,0,0,0,108.13,51.28Z"></path><path class="cls-9" d="M73,66.58l.73-1.4c4,2.07,8.08,3.58,12.71,3.47.57-3.77,1.09-7.46,0-11.21l1.2-.87c1.64,4.43,1.2,8.88.84,13.42C82.94,70.44,77.9,69,73,66.58Z"></path><path class="cls-10" d="M141.17,42.48c4.45,1.83,6.74,6.65,5.81,12l-4.65-3.72a1.3,1.3,0,0,1-.4-.84A49.1,49.1,0,0,1,141.17,42.48Z"></path><path class="cls-7" d="M126.48,45.78c1-2.93,0-5.5-1.06-8.13,1.46,1.57,2.53,3.62,4.8,4,2.44.42,4-1.24,5.57-2.89,1.31.82,2.61,1.65,3.92,2.46a.75.75,0,0,1,.38.7,46.39,46.39,0,0,0,.6,7.46c-.68-.07-.94-.37-1-.9s-.09-.88-.17-1.31c-.47-2.67-1.77-4.56-4.62-5.1A7,7,0,0,0,127.57,45C127.34,45.29,127.26,45.82,126.48,45.78Z"></path><path class="cls-7" d="M131.55,74.21a29.73,29.73,0,0,1,3.93,7.49,31.36,31.36,0,0,1-8.6,0A23.23,23.23,0,0,1,131.55,74.21Z"></path><path class="cls-7" d="M105.93,148.15a36.23,36.23,0,0,0-4.91-5.37,15.52,15.52,0,0,0-4.25-2.62,57.16,57.16,0,0,0,8.14-4.14,20.32,20.32,0,0,0,1.24,11.92Z"></path><path class="cls-9" d="M18.83,56.5a38.22,38.22,0,0,1,5.41,3.8c4.55,3.63,8.9,7.5,13.13,11.51a1.88,1.88,0,0,1,.53,2.07c-.43.2-.6-.09-.79-.26l-17.6-15.5A1.61,1.61,0,0,1,18.83,56.5Z"></path><path class="cls-9" d="M119.71,25.75c-3.1,2.87-6,5.85-9.44,8.19a19.56,19.56,0,0,1-11.56,3.51,12.9,12.9,0,0,0-6,1.37,8.5,8.5,0,0,0-3.84,4c-.84-.56-1-1.07-.37-1.88A9.6,9.6,0,0,1,96.94,37c5.74.12,10.52-2,14.84-5.61,2.06-1.7,4-3.48,6-5.37A1.37,1.37,0,0,1,119.71,25.75Z"></path><path class="cls-9" d="M110.36,70.12c.12-4.87.13-9.64,2.67-13.94a1.93,1.93,0,0,1,1,.79c-2,3.7-2.17,7.74-2.22,11.9a30.79,30.79,0,0,0,13.61-1.17c.62-.21,1.07-.23,1.36.57A33.35,33.35,0,0,1,110.36,70.12Z"></path><path class="cls-7" d="M127.23,102a82.5,82.5,0,0,0,.51-10.25,19.15,19.15,0,0,1,6,5.52A19,19,0,0,1,127.23,102Z"></path><path class="cls-5" d="M116.1,137.71a82,82,0,0,0-7.53,7.73c-1.14-2-1.4-5.52-.71-9.63C110.09,138.78,113.07,138.25,116.1,137.71Z"></path><path class="cls-6" d="M136.77,81.25c.57-.17,1.07-.29,1.54-.47s.86-.4,1.28-.61c1.62,2.39,3.09,7.45,2.88,10a13.31,13.31,0,0,1-3.52,0A36.81,36.81,0,0,0,136.77,81.25Z"></path><path class="cls-9" d="M37.59,70.39a1.12,1.12,0,0,1-.61-.65c8.86-7.11,20.71-9.6,28.53-4.26C55.32,62.14,46,63.9,37.59,70.39Z"></path><path class="cls-6" d="M131.71,72.18a12.31,12.31,0,0,0,4.74-2.71c.69,2.37,1.36,4.61,2,6.86.13.44-.19.65-.5.85a6,6,0,0,1-1.89.68.92.92,0,0,1-1.16-.57A45.06,45.06,0,0,0,131.71,72.18Z"></path><path class="cls-9" d="M38.44,71.55c4.53-6.21,20.42-8.56,28-4.3-.23.34-.33.8-1,.53-6.31-2.8-12.6-1.9-18.87.14a41.63,41.63,0,0,0-7,3.06C39.3,71.16,39,71.3,38.44,71.55Z"></path><path class="cls-10" d="M121.36,136.16c-4.53,4-8.89,8.23-13,12.68a.68.68,0,0,1-.21.1c-2.91-3.83-3.18-12.17-1.37-14-.14,1.38-.34,2.71-.42,4a16.75,16.75,0,0,0,1.18,7.37c.48,1.17.79,1.22,1.61.23a47.07,47.07,0,0,1,10.77-9.93c.4-.26.84-.44,1.26-.66Z"></path><path class="cls-10" d="M134.71,38.09c-3.07,3.91-5.63,3-8.06-1.12l3.72-2.49Z"></path><path class="cls-9" d="M127.79,89.19A25.08,25.08,0,0,1,137,97.35c-2.68,3.31-6.18,5.36-10,7-.36-.88.19-1.15.79-1.44a20.21,20.21,0,0,0,7.31-5.61,20.48,20.48,0,0,0-6.54-6.46C127.77,90.35,127.77,90.35,127.79,89.19Z"></path><path class="cls-6" d="M76.8,3.14c-2.88,7.06-5.73,14.05-8.61,21.14-.61-.54-.26-.88-.17-1.16C70.24,16.73,72.5,10.36,74.68,4,75.08,2.8,75.67,2.69,76.8,3.14Z"></path><path class="cls-6" d="M65.22,24c1.13-3.11,2.22-6.14,3.32-9.16q1.93-5.34,3.88-10.67c.21-.59.41-1.13,1.36-1C73.17,5,72.59,6.68,72,8.39c-1.7,4.89-3.44,9.77-5.11,14.67C66.6,23.86,66.21,24.15,65.22,24Z"></path><path class="cls-7" d="M128.89,110.49a26.54,26.54,0,0,0,9.86-5.41c.84-.79,1.33.17,2,.3C139.58,109.34,134.61,111.51,128.89,110.49Z"></path><path class="cls-10" d="M128.66,45.56a5.68,5.68,0,0,1,6.67-2.23,4.48,4.48,0,0,1,3.07,4.83C135.34,46.62,132.33,45,128.66,45.56Z"></path><path class="cls-9" d="M79.4,75.06a8,8,0,0,0-5.22,1.63c-.51-.63-.18-1,.26-1.33a10,10,0,0,1,6-1.93c.81,4.65,1.58,9.26.27,14-1-.88-1-.88-.76-2A29,29,0,0,0,79.4,75.06Z"></path><path class="cls-6" d="M71.67,26.35c-.49-.33-.89-.62-.59-1.33,2.8-6.7,5.56-13.4,8.34-20.1a1.19,1.19,0,0,1,.15-.21A1,1,0,0,1,80,6.1q-4.08,10-8.11,19.93A2.74,2.74,0,0,1,71.67,26.35Z"></path><path class="cls-10" d="M105.38,47.15l5.71-2.38a4.28,4.28,0,0,1,1.2,2.17,1.79,1.79,0,0,1-.92,2.12,3.1,3.1,0,0,1-4.13-.35C106.65,48.2,106,47.7,105.38,47.15Z"></path><path class="cls-9" d="M65.24,68.86c-.32.46-.49.47-.7.38-4.85-2.06-9.76-1.52-14.65-.28a50.23,50.23,0,0,0-10.63,4.19c.1-.85.83-1.37,4.35-2.81C50.62,67.47,57.71,65.69,65.24,68.86Z"></path><path class="cls-6" d="M139,94.42a14.4,14.4,0,0,0,3.55.32,11.62,11.62,0,0,1-1.63,6c-.33.58-.77.45-1.21.24-.59-.27-1.42-.43-1.26-1.33A38.44,38.44,0,0,0,139,94.42Z"></path><path class="cls-7" d="M78.46,76.26a28.2,28.2,0,0,1,.5,8.33,4.46,4.46,0,0,1-1.19-1.5,45.39,45.39,0,0,1-2.64-4.66.81.81,0,0,1,.36-1.26A5.59,5.59,0,0,1,78.46,76.26Z"></path><path class="cls-7" d="M112.44,44.25a21.45,21.45,0,0,0,6.72,4.86,17.22,17.22,0,0,0-7.87,2.54c-.94.52-1.14-.27-1.62-.68C114.13,48.76,114.24,48.48,112.44,44.25Z"></path><path class="cls-6" d="M77.85,3.5c.77.14.71.5.51,1q-4.06,9.82-8.11,19.65c-.1.25-.13.73-.6.56s-.2-.52-.09-.79C72.31,17.12,75.07,10.34,77.85,3.5Z"></path><path class="cls-4" d="M71,27.69l-1.93,2a4.16,4.16,0,0,0-4-1.37v-1c0-2.26.72-2.8,2.94-2.12A4.79,4.79,0,0,1,71,27.69Z"></path><path class="cls-9" d="M162.53,103.23c.92,0,2,1.44,2,2.61a2.27,2.27,0,0,1-2.16,1.87c-1.32,0-2.85-1.21-2.83-2.26S161.35,103.22,162.53,103.23Z"></path><path class="cls-9" d="M152.74,112.42c-.72-.58-1.51-1.12-2.18-1.78-.41-.41.08-.9.25-1.3,1-2.36,1.29-2.42,3.1-.72a2.78,2.78,0,0,1,.43.41c.46.6,1.52,1.07,1,1.93S153.7,111.87,152.74,112.42Z"></path><path class="cls-9" d="M86.58,55.73a16.6,16.6,0,0,1-5.68,2,17.93,17.93,0,0,0-11.77,8.09c-.2.3-.21.29-.92.61a8.46,8.46,0,0,1,2.17-3.55,20.78,20.78,0,0,1,7.51-4.77A37.85,37.85,0,0,1,86.58,55.73Z"></path><path class="cls-9" d="M171.25,89.25c0,1,0,2,0,3a.82.82,0,0,1-.53.93c-.74.31-1.58.85-2.23.22-.84-.82-.65-2-.33-3a1.9,1.9,0,0,1,2-1.31A5,5,0,0,1,171.25,89.25Z"></path><path class="cls-6" d="M116.11,56.78a82.79,82.79,0,0,0,8.36,3.35c-1.06,1.74-2.27,2-3.7.86-1.61-1.3-3.2-2.63-4.8-3.94Z"></path><path class="cls-9" d="M130.4,72.48c.39.34.72.6.19,1.15a25.87,25.87,0,0,0-5,7.9c-1.09-.66-1.09-1.41-.48-2.44A25.4,25.4,0,0,1,130.4,72.48Z"></path><path class="cls-8" d="M119.19,135.35c-2.63,1-5,1.78-7.46,1.56a3.51,3.51,0,0,1-3.1-2.36C112.09,135.83,115.49,135.09,119.19,135.35Z"></path><path class="cls-10" d="M111.42,52.88a18.68,18.68,0,0,1,6.43-2.51,23.57,23.57,0,0,0-3.58,4.87C113.1,54.72,112.42,53.72,111.42,52.88Z"></path><path class="cls-8" d="M129.81,69.67c2.41-.43,4.19-1.83,6-3.31a1.87,1.87,0,0,1-.55,2.67,13.7,13.7,0,0,1-2.62,1.64C131,71.39,131,71.39,129.81,69.67Z"></path><path class="cls-9" d="M126.29,82.72a42.73,42.73,0,0,0,8,.27,5.2,5.2,0,0,0,1.18-.12c.79-.23.86.21.87.87a19,19,0,0,1-4.74.47c-1.23,0-2.47-.1-3.7-.07A1.42,1.42,0,0,1,126.29,82.72Z"></path><path class="cls-8" d="M81.82,58.8C79.55,60,77,60.16,75.17,61.71a12.87,12.87,0,0,0-3.77,5.91,3.42,3.42,0,0,1-1.53-.8A16.28,16.28,0,0,1,81.82,58.8Z"></path><path class="cls-9" d="M160.63,111.63c.92,0,1.53.74,1.57,2,0,1.09-.57,1.72-1.78,1.74-.88,0-1.57-.24-1.58-1.33C158.83,112.67,159.56,111.65,160.63,111.63Z"></path><path class="cls-9" d="M26,60c-.26.28-.4,0-.55-.14a42,42,0,0,0-6.89-4.72c-.83-.41-.39-1.27-.67-1.91A57.74,57.74,0,0,1,26,60Z"></path><path class="cls-9" d="M150.13,62.56c-.62-.18-1.53,0-1.5-1.07,0-.83,1.07-1.89,1.77-1.84.32,0,1.87,1.52,1.78,1.78C151.86,62.41,151,62.43,150.13,62.56Z"></path><path class="cls-8" d="M142.75,93.42a5.28,5.28,0,0,1-2,.14c-1.7-.06-1.85-.25-1.7-2.1h3.59A5,5,0,0,1,142.75,93.42Z"></path><path class="cls-9" d="M130.78,50.05a4.51,4.51,0,0,0-3.36-.31c.5-1.76,1.87-2.83,3.33-2.62A4.32,4.32,0,0,1,130.78,50.05Z"></path><path class="cls-9" d="M168.79,100.14c-1.21-1.17-1.36-2.08-.56-2.94s1.32-.61,2.48.45Z"></path><path class="cls-7" d="M92.47,97.55a11.43,11.43,0,0,0-5.36.11C88.23,95.81,90.64,95.77,92.47,97.55Z"></path><path class="cls-9" d="M143.11,84.71l-1.81-4.37c1.47.11,1.88,1.22,2.3,2.24A1.55,1.55,0,0,1,143.11,84.71Z"></path><path class="cls-8" d="M135.9,79a7,7,0,0,0,3-1c.7,1.23-.28,1.48-1,1.78C136.49,80.35,136.33,80.27,135.9,79Z"></path><path class="cls-8" d="M126.69,60.64c-1.07,1.87-2.62,2.8-3.78,2.1C124.47,62.49,124.94,60.7,126.69,60.64Z"></path><path class="cls-9" d="M159.56,67.56c-2.14.11-3.15-.69-3.05-2.36Z"></path><path class="cls-9" d="M86.74,99.13a4.51,4.51,0,0,1,1.9-.55l.4,1.49A4.54,4.54,0,0,1,86.74,99.13Z"></path><path class="cls-6" d="M137.36,103.27l.95.47a7.4,7.4,0,0,1-2.13,1.76Z"></path><path class="cls-8" d="M139.78,102.27c-.52.91-1.09.42-1.62.15s-.4-.59,0-.94Z"></path><path class="cls-7" d="M106.15,147.94c.75.84.84,2.28,2.28,2.57.06.28-.18.43-.5.66-.67-1-1.33-2-2-3Z"></path><path class="cls-6" d="M166,72.27a2.5,2.5,0,0,1,1,.85l-.22.22-1.09-.81Z"></path><path class="cls-8" d="M94.22,143.05a.4.4,0,0,1,0,.52A.4.4,0,0,1,94.22,143.05Z"></path><path class="cls-10" d="M121.16,136c.11-.17.31-.3.43-.15s-.13.24-.23.35Z"></path><path class="cls-9" d="M26.28,60.14l.07.28-.17-.08.12-.24Z"></path><path class="cls-9" d="M65.24,64l.13-.2c.09.1.07.13-.06.1s0,.07-.07.1Z"></path><polygon class="cls-7" points="108.89 150.07 108.83 150.09 108.85 150.02 108.89 150.07"></polygon><path class="cls-9" d="M26.3,60.1c-.08,0-.08.22-.26.13S26,60,26,60l0,0,.29.17Z"></path><path class="cls-8" d="M24.94,38.08c2.2-6.72,4.35-13.28,6.6-20.13C34.79,24.57,37.9,30.88,41,37.24c-2.28.34-2.28.34-3.21-1.52a16.82,16.82,0,0,1-1.1-2.26,2.08,2.08,0,0,0-2.53-1.55,26.78,26.78,0,0,1-3.47,0,1.39,1.39,0,0,0-1.64,1.17c-.33,1.23-.86,2.41-1.15,3.64s-.84,1.62-2,1.41C25.67,38.09,25.39,38.11,24.94,38.08Zm7.59-7.69v0c.72,0,1.44.05,2.15,0s1-.46.7-1.16l-2.76-6.1c-.14-.3-.31-.56-.71-.55s-.6.3-.69.68c-.52,2-1,4-1.57,6-.18.7.14,1.09.84,1.13S31.85,30.39,32.53,30.39Z"></path><path class="cls-3" d="M108.45,100.49a30.12,30.12,0,0,1-4.15-.38c-.93-.13-1-.6-.67-1.32,2.58-5.06,6.73-7.23,12.24-5.41a16.2,16.2,0,0,1,3.73,1.9c.89.58.91.94,0,1.59A18.82,18.82,0,0,1,108.45,100.49Zm-3-1.32a20.13,20.13,0,0,0,7.82-.52A3.56,3.56,0,0,1,112,96.37,21.53,21.53,0,0,0,105.49,99.17Zm.35-1.63a24.82,24.82,0,0,1,4.78-2.06,17.74,17.74,0,0,1,5.11-.79C112,93,108.25,94.05,105.84,97.54Z"></path><path class="cls-3" d="M92.61,112.29l-1.15-.06c-.35,0-.65-.1-.69-.51a.53.53,0,0,1,.56-.62c.8,0,1.2-.52,1.7-1,1.33-1.16,2.76-1.95,4.55-1a.62.62,0,0,0,.75,0c1.73-1.2,3.39-.7,5,.26.75.44,1.5.9,2.27,1.32a3.07,3.07,0,0,0,2.73.35c.32-.12.78-.15.92.3s-.31.74-.68.77a3.32,3.32,0,0,0-2.47,1.78,9.12,9.12,0,0,1-9.93,3.2C93.88,116.41,92.83,114.74,92.61,112.29Zm1.31.79a3.64,3.64,0,0,0,2.72,3,7.71,7.71,0,0,0,3.09.23,7.31,7.31,0,0,0,5.65-3.31c-2.06.29-3.89.56-5.74.64A22.7,22.7,0,0,1,93.92,113.08Zm10.83-1.39c-.86-.54-1.58-1.06-2.34-1.47-1.31-.71-2.62-1-3.82.27a.76.76,0,0,1-1,.14c-1.74-1-2.81-.81-4,.82C96,112.92,101.28,112.48,104.75,111.69Z"></path><path class="cls-3" d="M102.37,93.66c3-4.27,11.62-6.65,15.68-1.75a6.19,6.19,0,0,1-2.55-.17c-2.52-.26-5-1-7.58-.39a16.82,16.82,0,0,0-5.38,2.49Z"></path><path class="cls-3" d="M103,104.92c0,1.7-.59,2.17-2.28,2a1.59,1.59,0,0,0-1.34.36,1.68,1.68,0,0,1-1.18.52c-1.32-.06-2.57-.55-3.9-.67-1-.08-1.44-2.41-.81-3.22a.5.5,0,0,1,.52-.21.45.45,0,0,1,.37.42c0,.32,0,.64,0,1,0,.81.24,1.36,1.22,1,.11,0,.28-.12.34-.08,1.83,1.46,3.49-.57,5.28-.25.74.13.52-.62.67-1s0-1.15.68-1S102.89,104.53,103,104.92Z"></path><path class="cls-3" d="M102.54,93.84l-.41.35c-.12-.34.09-.42.24-.53Z"></path><path class="cls-3" d="M149.47,68.61c2.7-1.22,3.43-1,4.94,1.62a16.61,16.61,0,0,0,1.94,2.87c.79.89,1.65,1.69,3,1.13a.5.5,0,0,1,.64.15.69.69,0,0,1-.12.88c-.53.64-1.09,1.28-1.59,1.94a5.07,5.07,0,0,0-1.23,4.33,1.6,1.6,0,0,1-1.27,2.1c-.57.11-.62.52-.78.91a5,5,0,0,1-3.21,3.3,1.74,1.74,0,0,1-2.51-1.52,9.33,9.33,0,0,1-.05-1.67,4.61,4.61,0,0,0-.67-3.07,3.85,3.85,0,0,1-.36-3.13c.3-1.33-.08-1.82-1.44-2a5.45,5.45,0,0,0-1.88.3c-2.64.71-4.43-.64-4.5-3.35-.14-4.61,2.68-6.22,6.83-6.5C148.42,66.87,148.84,67.93,149.47,68.61ZM158,75.72a9.49,9.49,0,0,1-4.05-4c-.36-.57-.68-1.18-1-1.75a1.46,1.46,0,0,0-2.31-.6c-1.29.71-1.59.65-2.48-.56-.3-.41-.57-.77-1.13-.71-3.47.35-5.64,1.46-5.51,5.3.06,2,1.08,2.82,3.05,2.39.46-.11.91-.3,1.38-.38,2.37-.39,3.77,1.05,3.35,3.34a3,3,0,0,0,.5,2.73,3,3,0,0,1,.48,1.2c.31,1.08-.15,2.15,0,3.22s.63,1.18,1.51.78a4.33,4.33,0,0,0,2.27-2.92c.2-.65.31-1.34,1.28-1.23.53.06.66-.4.59-.83A6.82,6.82,0,0,1,158,75.72Z"></path><path class="cls-3" d="M160.5,90.14A3.55,3.55,0,0,1,164.13,94c0,1.77-1.39,2.91-3.51,2.87A3.59,3.59,0,0,1,157.23,93C157.26,91.23,158.54,90.11,160.5,90.14Zm.37,5.56c1.52-.07,2.19-.69,2.12-2a2.46,2.46,0,0,0-2.67-2.53c-1.34.08-2,.81-1.95,2A2.38,2.38,0,0,0,160.87,95.7Z"></path><path class="cls-3" d="M127.12,53.24a6.23,6.23,0,0,1,2.71.27,3.1,3.1,0,0,1,1.7,1.6c.43,1,.13,1.75-1,2-.92.19-1.79.25-2.37,1.24-.39.66-1.17.44-1.64-.1a13,13,0,0,1-2.12-3.31c-.41-.94,0-1.55,1-1.67A15.49,15.49,0,0,1,127.12,53.24Zm-1.58,1.16a10.07,10.07,0,0,0,1.95,3.09c.43-.58.52-1.28,1.26-1.36s1.28.21,1.87-.38C129.37,53.63,127.35,54.49,125.54,54.4Z"></path><path class="cls-3" d="M154.91,103.36c-1.68,0-3.2-1.21-3.16-2.48a3.87,3.87,0,0,1,3.33-3.23,3.18,3.18,0,0,1,3.22,3.12C158.26,102.33,156.89,103.38,154.91,103.36Zm.08-1.16c1.43,0,2.22-.57,2.19-1.6a2,2,0,0,0-2-1.79,2.84,2.84,0,0,0-2.31,2.07C152.85,101.55,153.9,102.2,155,102.2Z"></path><path class="cls-3" d="M136.68,52.32c.58.09,1.3.14,2,.3a1.77,1.77,0,0,1,.91,3.11,10.33,10.33,0,0,0-1.22,1.59,1.74,1.74,0,0,1-3.06.2,4.27,4.27,0,0,1-1.2-2.8C134.06,53.14,135,52.26,136.68,52.32Zm.16,1.16c-1.46,0-1.85.47-1.55,1.76a3.93,3.93,0,0,0,.84,1.54c.47.57.93.55,1.31-.09a7.71,7.71,0,0,1,.7-1.23c.37-.39,1.06-.61.9-1.25s-1-.43-1.53-.64A2.08,2.08,0,0,0,136.84,53.48Z"></path><path class="cls-3" d="M164.78,87.11A3.06,3.06,0,0,1,162,84.94a2.47,2.47,0,0,1,1.64-2.74,6.62,6.62,0,0,1,4-.3,1.26,1.26,0,0,1,1.1,1.47C168.57,84.79,166.2,87.08,164.78,87.11Zm2.85-4a4.81,4.81,0,0,0-3.61.14c-.69.29-1.25.79-.86,1.68a1.63,1.63,0,0,0,2.15.92A5.27,5.27,0,0,0,167.63,83.11Z"></path><path class="cls-3" d="M145.13,94.46c0-2.1.8-2.81,3.09-2.77,2,0,3,.7,3,2a3.53,3.53,0,0,1-3.69,3.42C145.72,97.11,145.11,96.43,145.13,94.46Zm3.18-1.63c-1.78,0-2.09.28-2.11,1.75,0,1,.29,1.5,1.37,1.45A2.43,2.43,0,0,0,150,93.78C149.92,92.6,148.9,93,148.31,92.83Z"></path><path class="cls-3" d="M165.73,72.53l1.09.81c1.37,2.4.53,4.49-2,4.94a2.36,2.36,0,0,1-2.84-2C161.53,73.48,162.93,72.08,165.73,72.53Zm-2.63,2.92c0,.91.16,1.71,1.29,1.78a2.29,2.29,0,0,0,2.12-1.91,2.17,2.17,0,0,0-2-1.85C163.55,73.5,163.1,74.13,163.1,75.45Z"></path><path class="cls-3" d="M137.5,64c0-1.42.64-2.09,2-2.11,1.71,0,3.34,1.35,3.31,2.8,0,1-1.87,2.68-3,2.7C138.42,67.35,137.5,66,137.5,64Zm1.18.35c.18.56-.13,1.7,1.14,1.89.57.09,1.8-1.18,1.79-1.7,0-.72-1.07-1.55-2-1.57S138.56,63.3,138.68,64.3Z"></path><path class="cls-3" d="M52.54,52c.2,1.19-.32,1.43-1.22,1.26a.87.87,0,0,1-.43-.17c-1.74-1.63-3.57-1.29-5.47-.31-1.41.74-2.94.54-4.45.41a9.54,9.54,0,0,0-4.89.69,11.13,11.13,0,0,1-3.48.77,4,4,0,0,0-2.89,1.44c-.24.29-.55.71-1,.28s-.12-.73.14-1.06a4.83,4.83,0,0,1,3.52-1.78,13.25,13.25,0,0,0,3.92-1,10.44,10.44,0,0,1,5.42-.45,8.5,8.5,0,0,0,4.6-.89,3.79,3.79,0,0,1,4.25.37A2.23,2.23,0,0,0,52.54,52Z"></path><path class="cls-3" d="M44.16,59.25A8.72,8.72,0,0,0,49,58.37a5.14,5.14,0,0,1,4.18-.17,33.45,33.45,0,0,0,6.45,1.68c.37,0,.78,0,.78.53s-.48.54-.88.52a19.86,19.86,0,0,1-5.78-1.39,6,6,0,0,0-5.38.35,6.44,6.44,0,0,1-3.74.51c-2.48-.17-4.88-.08-6.8,1.82-.26.25-.6.37-.84.05s-.09-.74.25-1a7.41,7.41,0,0,1,4.62-2C42.55,59.23,43.27,59.25,44.16,59.25Z"></path><path class="cls-3" d="M27.21,52.51a.87.87,0,0,1,.06-1.29A3.09,3.09,0,0,1,30.67,50a4.84,4.84,0,0,0,3.27-.12c2.18-.88,4.56-1,6.78-1.84a5.44,5.44,0,0,1,4.62.55c.54.32,1.17.62,1,1.46-.43.23-.74.06-1.1-.18A5.2,5.2,0,0,0,40,49.45c-2.22.92-4.66,1-6.9,1.83a3.49,3.49,0,0,1-2.12,0,2.48,2.48,0,0,0-3,1A.71.71,0,0,1,27.21,52.51Z"></path><path class="cls-3" d="M35.35,47.67h-.47c-1.58-.48-3-.47-4,1.14-.39.58-1.3.5-2,.38a3.26,3.26,0,0,0-2.78.71,2.56,2.56,0,0,1-2.72.22c-1.62-.59-1.94-.5-3.07.83-.25.29-.48.74-.94.44s-.2-.77,0-1.13a3.16,3.16,0,0,1,4-1.33,2.2,2.2,0,0,0,2.53-.31A3.12,3.12,0,0,1,28.64,48a1.88,1.88,0,0,0,2.17-.77,2.5,2.5,0,0,1,2.88-1,5.3,5.3,0,0,0,2.82,0c.4-.1,1-.29,1.1.31s-.4.71-.83.79C36.19,47.58,35.6,47.64,35.35,47.67Z"></path><path class="cls-3" d="M44.82,56.36c-.69-.06-1.13-.06-1.56-.14a4.25,4.25,0,0,0-4.08,1,7.54,7.54,0,0,1-4,1.54A5.23,5.23,0,0,0,32.45,60c-.26.25-.59.5-.93.14s0-.76.23-1a5.93,5.93,0,0,1,3.32-1.48,8.12,8.12,0,0,0,4.26-2A3.37,3.37,0,0,1,42.38,55a19.35,19.35,0,0,0,6.17-.19c.46-.06,1.05-.32,1.15.39s-.51.65-1,.7Z"></path><path class="cls-3" d="M60.29,50.68c-.88-2.15-1.5-4.71-4.63-4.12-.42-.62-.16-1,.18-1.36a17.11,17.11,0,0,1,7.94-5.09,1.27,1.27,0,0,1,1.73.68,47.54,47.54,0,0,0,2.81,4c.71,1,.62,1.26-.52,1.48a13,13,0,0,0-5.44,2.85A9.21,9.21,0,0,1,60.29,50.68Zm-3.1-5.25a5,5,0,0,1,3.65,3.5,17,17,0,0,1,6.3-3.69c-.86-1.26-1.71-2.46-2.51-3.69-.27-.42-.59-.34-.94-.22A15.91,15.91,0,0,0,57.19,45.43Z"></path><path class="cls-3" d="M83.78,47.88c-7.2-.75-13.13,2.23-18.65,6.41l-.57.44c-.28.21-.6.3-.84,0s-.1-.61.16-.84.79-.67,1.21-1a30.64,30.64,0,0,1,13-6,17.49,17.49,0,0,1,5.82-.13c.41.06.73.21.7.64S84.22,48,83.78,47.88Z"></path><path class="cls-3" d="M85.89,49.9a.5.5,0,0,1,.56.48c.06.53-.31.65-.75.7a44.26,44.26,0,0,0-18.54,6.38c-.35.21-.79.46-1,0s.16-.8.57-1a45.92,45.92,0,0,1,7.59-3.7A46.81,46.81,0,0,1,85.89,49.9Z"></path><path class="cls-3" d="M63.32,51.52c-.4-.11-.64-.27-.49-.76s.53-.57.84-.79a40.63,40.63,0,0,1,11-4.79c1.59-.48,3.13-1.12,4.7-1.65.44-.15,1-.66,1.31.11s-.51.8-1,1c-2,.74-4.09,1.54-6.18,2.14A35.43,35.43,0,0,0,64.14,51Z"></path><path class="cls-3" d="M78.87,37.36c.35.78-.13,1.06-.66,1.31a11.83,11.83,0,0,1-6.73,1c-1.3-.17-2.38-.1-2.91,1.34-.11.3-.36.55-.75.34s-.36-.49-.28-.83a3,3,0,0,1,3.14-2.06,11.84,11.84,0,0,0,7.52-1.07A1.65,1.65,0,0,1,78.87,37.36Z"></path><path class="cls-3" d="M71.34,43.17h-1a.51.51,0,0,1-.53-.53.49.49,0,0,1,.48-.57c3,.17,5.31-1.77,8.06-2.34.47-.1,1-.38,1.21.25s-.44.72-.93.82c-2.22.47-4.11,1.9-6.39,2.23Z"></path><path class="cls-3" d="M32.53,30.39c-.68,0-1.36,0-2,0s-1-.43-.84-1.13c.52-2,1.05-4,1.57-6,.09-.38.24-.66.69-.68s.57.25.71.55l2.76,6.1c.31.7,0,1.1-.7,1.16s-1.43,0-2.15,0ZM33.78,29l-1.7-3.75L31.16,29Z"></path><path class="cls-9" d="M105.49,99.17a21.53,21.53,0,0,1,6.51-2.8,3.56,3.56,0,0,0,1.31,2.28A20.13,20.13,0,0,1,105.49,99.17Z"></path><path class="cls-7" d="M105.84,97.54c2.41-3.49,6.16-4.58,9.89-2.85a17.74,17.74,0,0,0-5.11.79A24.82,24.82,0,0,0,105.84,97.54Z"></path><path class="cls-7" d="M93.92,113.08a22.7,22.7,0,0,0,5.72.51c1.85-.08,3.68-.35,5.74-.64a7.31,7.31,0,0,1-5.65,3.31,7.71,7.71,0,0,1-3.09-.23A3.64,3.64,0,0,1,93.92,113.08Z"></path><path class="cls-7" d="M104.75,111.69c-3.47.79-8.8,1.23-11.17-.24,1.15-1.63,2.22-1.87,4-.82a.76.76,0,0,0,1-.14c1.2-1.23,2.51-1,3.82-.27C103.17,110.63,103.89,111.15,104.75,111.69Z"></path><path class="cls-8" d="M158,75.72a6.82,6.82,0,0,0-2.07,6c.07.43-.06.89-.59.83-1-.11-1.08.58-1.28,1.23a4.33,4.33,0,0,1-2.27,2.92c-.88.4-1.34.2-1.51-.78s.27-2.14,0-3.22a3,3,0,0,0-.48-1.2,3,3,0,0,1-.5-2.73c.42-2.29-1-3.73-3.35-3.34-.47.08-.92.27-1.38.38-2,.43-3-.38-3.05-2.39-.13-3.84,2-5,5.51-5.3.56-.06.83.3,1.13.71.89,1.21,1.19,1.27,2.48.56a1.46,1.46,0,0,1,2.31.6c.36.57.68,1.18,1,1.75A9.49,9.49,0,0,0,158,75.72Z"></path><path class="cls-9" d="M160.87,95.7a2.38,2.38,0,0,1-2.5-2.45c-.09-1.22.61-2,1.95-2A2.46,2.46,0,0,1,163,93.75C163.06,95,162.39,95.63,160.87,95.7Z"></path><path class="cls-9" d="M125.54,54.4c1.81.09,3.83-.77,5.08,1.35-.59.59-1.26.32-1.87.38s-.83.78-1.26,1.36A10.07,10.07,0,0,1,125.54,54.4Z"></path><path class="cls-9" d="M155,102.2c-1.09,0-2.14-.65-2.13-1.32a2.84,2.84,0,0,1,2.31-2.07,2,2,0,0,1,2,1.79C157.21,101.63,156.42,102.2,155,102.2Z"></path><path class="cls-9" d="M136.84,53.48a2.08,2.08,0,0,1,.67.09c.51.21,1.34-.11,1.53.64s-.53.86-.9,1.25a7.71,7.71,0,0,0-.7,1.23c-.38.64-.84.66-1.31.09a3.93,3.93,0,0,1-.84-1.54C135,54,135.38,53.43,136.84,53.48Z"></path><path class="cls-9" d="M167.63,83.11a5.27,5.27,0,0,1-2.32,2.74,1.63,1.63,0,0,1-2.15-.92c-.39-.89.17-1.39.86-1.68A4.81,4.81,0,0,1,167.63,83.11Z"></path><path class="cls-9" d="M148.31,92.83c.59.13,1.61-.23,1.7,1A2.43,2.43,0,0,1,147.57,96c-1.08,0-1.38-.5-1.37-1.45C146.22,93.11,146.53,92.82,148.31,92.83Z"></path><path class="cls-9" d="M163.1,75.45c0-1.32.45-2,1.38-2a2.17,2.17,0,0,1,2,1.85,2.29,2.29,0,0,1-2.12,1.91C163.26,77.16,163.09,76.36,163.1,75.45Z"></path><path class="cls-9" d="M138.68,64.3c-.12-1,.18-1.4.95-1.38s2,.85,2,1.57c0,.52-1.22,1.79-1.79,1.7C138.55,66,138.86,64.86,138.68,64.3Z"></path><path class="cls-11" d="M57.19,45.43a15.91,15.91,0,0,1,6.5-4.1c.35-.12.67-.2.94.22.8,1.23,1.65,2.43,2.51,3.69a17,17,0,0,0-6.3,3.69A5,5,0,0,0,57.19,45.43Z"></path><path class="cls-9" d="M33.78,29H31.16l.92-3.75Z"></path></g></g></svg>